<?xml version="1.0" encoding="UTF-8"?>
<svg version="1.1" xmlns="http://www.w3.org/2000/svg" width="500" height="500">
<path d="M0 0 C2.20609596 0.00385145 4.41218747 0.00586366 6.61828613 0.00746536 C26.65642746 0.02457619 46.68868689 0.1778082 66.72351074 0.56627274 C68.29115677 0.59560898 68.29115677 0.59560898 69.89047241 0.62553787 C101.15061698 1.23196218 123.71169746 5.2353936 146.40319824 28.49596024 C150.12069777 32.7141331 153.01044591 37.21611314 155.72351074 42.12877274 C156.19659668 42.97955399 156.66968262 43.83033524 157.15710449 44.70689774 C164.77457116 59.80620852 164.87489714 77.6863265 164.86877441 94.22667313 C164.87177089 95.84734041 164.87517454 97.46800699 164.87895203 99.08867264 C164.88774891 103.47130947 164.89012839 107.85392674 164.89076781 112.23657155 C164.89148104 114.98239864 164.89362057 117.72822084 164.89626503 120.47404671 C164.90550591 130.07567406 164.90960171 139.67728757 164.90881348 149.27891922 C164.90821381 158.19188622 164.91874705 167.10479248 164.93455714 176.01774412 C164.9476905 183.69879438 164.95299492 191.37982494 164.95235807 199.06088632 C164.95210467 203.63543266 164.95486703 208.20992503 164.96553612 212.78446007 C164.97531457 217.09455661 164.97523051 221.40454868 164.96801949 225.7146492 C164.96698546 227.28340625 164.96926482 228.85217014 164.97537994 230.4209156 C165.05688269 252.80594601 161.95604143 275.48657618 146.72351074 293.12877274 C146.06351074 293.12877274 145.40351074 293.12877274 144.72351074 293.12877274 C144.38319824 293.96408524 144.38319824 293.96408524 144.03601074 294.81627274 C142.34801038 297.79036861 140.25674558 299.84886139 137.72351074 302.12877274 C137.06351074 302.12877274 136.40351074 302.12877274 135.72351074 302.12877274 C135.72351074 302.78877274 135.72351074 303.44877274 135.72351074 304.12877274 C132.23410378 306.73299926 128.46407303 308.90546663 124.72351074 311.12877274 C124.08026855 311.51549149 123.43702637 311.90221024 122.77429199 312.30064774 C112.74898514 317.79766992 101.69743031 320.34375555 90.40075684 321.26060867 C88.91271577 321.3844021 88.91271577 321.3844021 87.39461327 321.51069641 C74.92352581 322.45600127 62.44962072 322.41757614 49.95007324 322.39439774 C47.326731 322.39575091 44.70338901 322.39769681 42.08004761 322.40019608 C36.61238543 322.40380067 31.14477784 322.39913575 25.67712402 322.38951492 C20.14258276 322.37988558 14.60814952 322.37985001 9.0736084 322.38951492 C-43.75003655 322.47907676 -43.75003655 322.47907676 -63.94055176 321.30064774 C-65.18621918 321.2315419 -66.4318866 321.16243607 -67.71530151 321.09123611 C-83.80690028 319.96316999 -101.55338417 314.39190116 -114.27648926 304.12877274 C-114.27648926 303.46877274 -114.27648926 302.80877274 -114.27648926 302.12877274 C-114.87461426 301.86064774 -115.47273926 301.59252274 -116.08898926 301.31627274 C-118.27496779 300.12959867 -119.6898152 299.03278161 -121.27648926 297.12877274 C-121.27648926 296.46877274 -121.27648926 295.80877274 -121.27648926 295.12877274 C-121.93648926 295.12877274 -122.59648926 295.12877274 -123.27648926 295.12877274 C-124.56555176 293.66783524 -124.56555176 293.66783524 -125.90148926 291.75377274 C-126.34750488 291.12728836 -126.79352051 290.50080399 -127.25305176 289.85533524 C-128.27648926 288.12877274 -128.27648926 288.12877274 -128.27648926 286.12877274 C-128.93648926 286.12877274 -129.59648926 286.12877274 -130.27648926 286.12877274 C-143.76037174 260.86543111 -143.58858562 235.81318922 -143.54514027 207.85558748 C-143.54000933 203.5101539 -143.54479129 199.16472797 -143.5479126 194.81929398 C-143.55153265 187.5253025 -143.54680585 180.23135175 -143.53723145 172.93736649 C-143.52635891 164.5588064 -143.52987173 156.18034378 -143.54088426 147.80178607 C-143.55002329 140.55275451 -143.55121014 133.30375193 -143.54600692 126.05471647 C-143.54292221 121.74957842 -143.54237942 117.44448584 -143.5490799 113.13935089 C-143.63713217 47.46068012 -143.63713217 47.46068012 -117.75695801 21.34361649 C-116.27648926 20.12877274 -116.27648926 20.12877274 -114.27648926 20.12877274 C-114.27648926 19.46877274 -114.27648926 18.80877274 -114.27648926 18.12877274 C-108.41019831 13.75062177 -101.92043919 10.17985704 -95.27648926 7.12877274 C-94.16273926 6.59252274 -93.04898926 6.05627274 -91.90148926 5.50377274 C-78.57126306 0.44748004 -63.6221722 0.96336049 -49.55383301 0.57408524 C-48.45812642 0.54268133 -48.45812642 0.54268133 -47.34028435 0.51064301 C-31.5599934 0.06496885 -15.78571928 -0.0301688 0 0 Z " fill="#1EA083" transform="translate(239.2764892578125,88.8712272644043)"/>
<path d="M0 0 C4.17043952 1.82017534 8.20898867 3.84749399 12.25 5.9375 C13.40878662 6.52724609 14.56757324 7.11699219 15.76147461 7.72460938 C23.88726275 11.87260935 31.97612514 16.09150551 40.03125 20.375 C43.89188554 22.42415597 47.77097525 24.43546148 51.65625 26.4375 C52.8002124 27.02789062 53.9441748 27.61828125 55.12280273 28.2265625 C57.38122009 29.39095626 59.64110529 30.55250829 61.90258789 31.7109375 C62.92602295 32.23945313 63.94945801 32.76796875 65.00390625 33.3125 C65.91986572 33.78300781 66.8358252 34.25351563 67.77954102 34.73828125 C70 36 70 36 72 38 C72.27415466 40.94699097 72.27415466 40.94699097 72.30639648 44.77294922 C72.31472 45.46907318 72.32304352 46.16519714 72.33161926 46.88241577 C72.3557679 49.18989614 72.36449735 51.49709407 72.37109375 53.8046875 C72.38005682 55.4065052 72.3891786 57.00832201 72.39845276 58.61013794 C72.41495881 61.97106971 72.42264571 65.33190168 72.42553711 68.69287109 C72.43092092 72.99971368 72.4685927 77.30561829 72.51428127 81.61219597 C72.54402549 84.92191999 72.55126009 88.23141751 72.55226326 91.54126358 C72.55647133 93.12892068 72.56892926 94.71657811 72.58978081 96.30410385 C72.61664166 98.52619052 72.61188813 100.74609557 72.59936523 102.96826172 C72.60443588 104.23241913 72.60950653 105.49657654 72.61473083 106.79904175 C72 110 72 110 69.63981628 112.34069824 C66.83640079 114.10283308 64.02967782 115.64607407 61.0546875 117.1015625 C59.90500488 117.6689917 58.75532227 118.2364209 57.57080078 118.82104492 C56.96786194 119.11530365 56.3649231 119.40956238 55.74371338 119.71273804 C52.56765049 121.26321731 49.40146406 122.83363728 46.234375 124.40234375 C45.60608795 124.71297256 44.9778009 125.02360138 44.33047485 125.34364319 C39.21745303 127.87708128 34.16066801 130.50441337 29.125 133.1875 C26.89389226 134.36615665 24.66171989 135.54277203 22.42919922 136.71875 C20.67160507 137.64577051 18.91562233 138.57584836 17.16064453 139.5078125 C14.17796769 141.08433559 11.18418073 142.63779079 8.1875 144.1875 C7.26146973 144.68209717 6.33543945 145.17669434 5.38134766 145.6862793 C-1.02390286 148.96441313 -1.02390286 148.96441313 -5 149.109375 C-9.57111613 147.41901435 -13.85953293 145.29581541 -18.1875 143.0625 C-19.15929199 142.56886963 -20.13108398 142.07523926 -21.13232422 141.56665039 C-28.10097952 138.01419184 -35.02725564 134.38123662 -41.93408203 130.71020508 C-47.76122328 127.62124376 -53.64986426 124.67139531 -59.5625 121.75 C-76.76773857 113.23226143 -76.76773857 113.23226143 -80 110 C-80.10482948 107.84339326 -80.1385684 105.68331258 -80.14526367 103.52416992 C-80.14862228 102.84769913 -80.1519809 102.17122833 -80.15544128 101.47425842 C-80.1649801 99.2263101 -80.16689607 96.97843608 -80.16796875 94.73046875 C-80.17118009 93.17206287 -80.17454407 91.61365731 -80.17805481 90.05525208 C-80.18405397 86.78251446 -80.18589399 83.50980328 -80.18530273 80.23706055 C-80.18520125 76.04374146 -80.19883587 71.85059222 -80.21607494 67.65731335 C-80.22719748 64.4359713 -80.22922184 61.21467021 -80.22869301 57.99331093 C-80.22987342 56.44755787 -80.23429862 54.90180376 -80.24202538 53.35606956 C-80.25182731 51.19193049 -80.24894622 49.02815871 -80.24291992 46.86401367 C-80.24434494 45.63236984 -80.24576996 44.40072601 -80.24723816 43.13175964 C-80.0091462 40.11585475 -79.70208424 38.46621551 -78 36 C-75.84990682 34.63714201 -73.80809453 33.49699793 -71.53515625 32.3828125 C-70.87834366 32.04892014 -70.22153107 31.71502777 -69.54481506 31.37101746 C-67.38933568 30.27816031 -65.22604623 29.20178538 -63.0625 28.125 C-61.56755423 27.37000435 -60.07325586 26.6137255 -58.57958984 25.85620117 C-55.53444659 24.31292974 -52.48673588 22.77492038 -49.43701172 21.24072266 C-42.97272602 17.98328287 -36.5485044 14.64942094 -30.125 11.3125 C-29.05902588 10.76158691 -27.99305176 10.21067383 -26.89477539 9.64306641 C-25.88020264 9.1176123 -24.86562988 8.5921582 -23.8203125 8.05078125 C-22.8499707 7.55143066 -21.87962891 7.05208008 -20.87988281 6.53759766 C-18.91030106 5.48601866 -16.96717471 4.38375783 -15.04980469 3.23974609 C-6.02221052 -2.09725454 -6.02221052 -2.09725454 0 0 Z " fill="#F3FCFA" transform="translate(254,173)"/>
<path d="M0 0 C1.5697305 0.73696755 3.11788031 1.52072605 4.6484375 2.3359375 C5.56093262 2.81796631 6.47342773 3.29999512 7.41357422 3.79663086 C8.39084473 4.31749268 9.36811523 4.83835449 10.375 5.375 C19.37480238 10.12708479 28.42382341 14.75720995 37.55224609 19.25732422 C43.126873 22.01757638 48.59053713 24.92841429 54 28 C54 28.66 54 29.32 54 30 C44.46193959 35.06279747 34.92643526 40.12199465 25.22509766 44.86669922 C21.27167539 46.81434831 17.39896648 48.86981153 13.546875 51.01171875 C12.6069873 51.52677979 11.66709961 52.04184082 10.69873047 52.57250977 C8.84998815 53.5889504 7.00997031 54.62146341 5.18017578 55.67163086 C-1.11265937 59.1057757 -1.11265937 59.1057757 -4.94921875 58.6484375 C-6.45935547 57.83246094 -6.45935547 57.83246094 -8 57 C-9.14178711 56.43176514 -9.14178711 56.43176514 -10.30664062 55.85205078 C-13.12415672 54.44381334 -15.90569539 52.97746629 -18.6875 51.5 C-20.20476685 50.70130493 -20.20476685 50.70130493 -21.75268555 49.88647461 C-24.83734201 48.26181311 -27.91886825 46.63133408 -31 45 C-34.43663198 43.18585135 -37.8744412 41.37394286 -41.3125 39.5625 C-42.47749023 38.94785889 -42.47749023 38.94785889 -43.66601562 38.32080078 C-49.07391185 35.47237586 -54.50758166 32.6826722 -60 30 C-60 29.34 -60 28.68 -60 28 C-58.37111023 27.15491615 -56.7421991 26.30987348 -55.11328125 25.46484375 C-54.04279541 24.90933838 -52.97230957 24.35383301 -51.86938477 23.78149414 C-49.4764423 22.54026059 -47.08228197 21.30141694 -44.68725586 20.06420898 C-38.74630777 16.99316575 -32.8132473 13.90977115 -26.90913391 10.76835632 C-24.26974586 9.36525177 -21.62564987 7.97115968 -18.98104858 6.57791138 C-17.70419313 5.90212263 -16.4296141 5.22201474 -15.15737915 4.53756714 C-13.37247707 3.5779068 -11.57898061 2.63428354 -9.78515625 1.69140625 C-8.76301025 1.14685791 -7.74086426 0.60230957 -6.68774414 0.04125977 C-3.73625345 -1.10217813 -2.85647417 -1.20571337 0 0 Z " fill="#24B18C" transform="translate(253,185)"/>
<path d="M0 0 C0.89332031 0.46148437 1.78664062 0.92296875 2.70703125 1.3984375 C3.74923828 1.8625 3.74923828 1.8625 4.8125 2.3359375 C5.49957031 2.6865625 6.18664062 3.0371875 6.89453125 3.3984375 C7.73886719 3.82640625 8.58320313 4.254375 9.453125 4.6953125 C12.10276853 6.08216073 14.73675691 7.491413 17.3671875 8.9140625 C18.20290283 9.36265625 19.03861816 9.81125 19.8996582 10.2734375 C21.58070169 11.17726918 23.25777706 12.08852759 24.93041992 13.0078125 C25.71779541 13.430625 26.5051709 13.8534375 27.31640625 14.2890625 C28.01733398 14.67094727 28.71826172 15.05283203 29.44042969 15.44628906 C33.32426619 17.07780159 36.34785249 17.84627215 40.41674805 16.50561523 C41.77280151 15.80094116 41.77280151 15.80094116 43.15625 15.08203125 C44.17009766 14.56447266 45.18394531 14.04691406 46.22851562 13.51367188 C47.27330078 12.96001953 48.31808594 12.40636719 49.39453125 11.8359375 C50.93270508 11.04606445 50.93270508 11.04606445 52.50195312 10.24023438 C56.64058194 8.10425223 60.75276981 5.94885078 64.78759766 3.62158203 C65.75745605 3.0645459 66.72731445 2.50750977 67.7265625 1.93359375 C69.02170776 1.16801147 69.02170776 1.16801147 70.34301758 0.38696289 C73.09098866 -0.76211642 73.99114187 -0.70878595 76.70703125 0.3984375 C78.02635839 1.04319247 79.32332116 1.73518414 80.59765625 2.46484375 C81.30664062 2.86767578 82.015625 3.27050781 82.74609375 3.68554688 C83.47570312 4.10642578 84.2053125 4.52730469 84.95703125 4.9609375 C85.70210938 5.38568359 86.4471875 5.81042969 87.21484375 6.24804688 C89.04802086 7.29389792 90.87785802 8.34559942 92.70703125 9.3984375 C89.36311898 12.22125993 86.12807047 14.36285225 82.19921875 16.28125 C80.60823364 17.06556396 80.60823364 17.06556396 78.98510742 17.86572266 C77.86209229 18.41276855 76.73907715 18.95981445 75.58203125 19.5234375 C73.24141806 20.67812911 70.90158028 21.8343938 68.5625 22.9921875 C67.40540527 23.56453125 66.24831055 24.136875 65.05615234 24.7265625 C60.30368809 27.09898379 55.59220758 29.5446037 50.89453125 32.0234375 C50.13188965 32.42449707 49.36924805 32.82555664 48.58349609 33.23876953 C47.87531738 33.61372559 47.16713867 33.98868164 46.4375 34.375 C45.78571777 34.71950195 45.13393555 35.06400391 44.46240234 35.41894531 C42.50894127 36.47512588 42.50894127 36.47512588 40.0078125 38.234375 C37.0421616 39.73482316 35.87295708 39.25136619 32.70703125 38.3984375 C30.50415039 37.42138672 30.50415039 37.42138672 28.2421875 36.203125 C27.37343994 35.74131836 26.50469238 35.27951172 25.60961914 34.80371094 C24.67239014 34.2987207 23.73516113 33.79373047 22.76953125 33.2734375 C13.00415246 28.08941687 3.16552788 23.07731276 -6.73046875 18.1484375 C-7.40769989 17.81084412 -8.08493103 17.47325073 -8.78268433 17.12542725 C-12.61809042 15.21369871 -16.45486325 13.30474233 -20.29296875 11.3984375 C-20.29296875 10.4084375 -20.29296875 9.4184375 -20.29296875 8.3984375 C-17.60276981 6.82340266 -14.88875354 5.29492899 -12.16796875 3.7734375 C-11.40742188 3.32742188 -10.646875 2.88140625 -9.86328125 2.421875 C-4.11208418 -0.75119925 -4.11208418 -0.75119925 0 0 Z " fill="#1C927B" transform="translate(214.29296875,270.6015625)"/>
<path d="M0 0 C1.40765625 0.7425 1.40765625 0.7425 2.84375 1.5 C3.93429688 2.04914063 5.02484375 2.59828125 6.1484375 3.1640625 C7.34045676 3.81420932 8.53047919 4.46802717 9.71875 5.125 C11.03711544 5.83583293 12.3561502 6.54542563 13.67578125 7.25390625 C15.78591847 8.39021089 17.89519403 9.52792809 20.00146484 10.67138672 C22.12805896 11.81831927 24.2654448 12.94236354 26.40625 14.0625 C27.06028809 14.42102051 27.71432617 14.77954102 28.38818359 15.14892578 C32.67879856 17.36546741 35.22521518 17.93915231 39.84375 16.5 C42.37339072 15.40064395 44.77830075 14.26755767 47.21875 13 C47.90557861 12.65267822 48.59240723 12.30535645 49.30004883 11.94750977 C53.01948636 10.04406025 56.66508774 8.04676362 60.26953125 5.93359375 C60.98383301 5.51722656 61.69813477 5.10085937 62.43408203 4.671875 C63.80655105 3.86405156 65.17126718 3.04287233 66.52685547 2.20703125 C69.15585021 0.65393547 71.1852709 -0.5 74.28125 -0.5 C78.028643 0.96239727 81.58540202 2.71484944 85.15625 4.5625 C85.89681641 4.93955078 86.63738281 5.31660156 87.40039062 5.70507812 C89.21762522 6.63128157 91.03107404 7.56490629 92.84375 8.5 C92.84375 9.16 92.84375 9.82 92.84375 10.5 C85.27247625 14.59022835 77.68152584 18.6195702 69.96875 22.4375 C63.45331621 25.66304986 57.01465771 29.01788079 50.60205078 32.44311523 C49.28720214 33.14512149 47.97038859 33.84346348 46.65136719 34.53759766 C44.99543801 35.41923904 43.35978044 36.33868455 41.7265625 37.26171875 C38.38241866 38.69815994 36.46320873 38.79795999 32.84375 38.5 C29.75439453 37.25 29.75439453 37.25 26.4765625 35.5 C25.88420807 35.18847992 25.29185364 34.87695984 24.68154907 34.55599976 C22.77116191 33.54842978 20.87016785 32.52437855 18.96875 31.5 C17.65597964 30.80416732 16.3424996 30.10967193 15.02832031 29.41650391 C13.07989295 28.38842963 11.13201502 27.35944246 9.18664551 26.32559204 C4.36075131 23.76098161 -0.50220842 21.28598022 -5.40625 18.875 C-10.74485151 16.23575422 -15.99885519 13.47982811 -21.15625 10.5 C-21.15625 9.84 -21.15625 9.18 -21.15625 8.5 C-18.29817625 6.92532594 -15.41786574 5.3966269 -12.53125 3.875 C-11.72300781 3.42898437 -10.91476563 2.98296875 -10.08203125 2.5234375 C-4.0110989 -0.63542161 -4.0110989 -0.63542161 0 0 Z " fill="#1F9F81" transform="translate(214.15625,237.5)"/>
<path d="M0 0 C2.20609596 0.00385145 4.41218747 0.00586366 6.61828613 0.00746536 C26.65642746 0.02457619 46.68868689 0.1778082 66.72351074 0.56627274 C68.29115677 0.59560898 68.29115677 0.59560898 69.89047241 0.62553787 C101.15061698 1.23196218 123.71169746 5.2353936 146.40319824 28.49596024 C150.12069777 32.7141331 153.01044591 37.21611314 155.72351074 42.12877274 C156.19659668 42.97955399 156.66968262 43.83033524 157.15710449 44.70689774 C161.08362223 52.49002488 162.51551231 60.55903742 163.72351074 69.12877274 C163.89776581 70.361474 164.07202087 71.59417526 164.2515564 72.86423111 C165.0262432 80.00206248 164.86293113 87.18359696 164.85290527 94.35362625 C164.85426215 95.98727329 164.8560437 97.62092003 164.85821533 99.25456619 C164.86275517 103.66972653 164.86101443 108.08486336 164.85783625 112.50002408 C164.85529522 117.13139612 164.85765499 121.76276621 164.85922241 126.39413834 C164.86103884 134.16888666 164.85865142 141.94362547 164.85388184 149.71837234 C164.84843832 158.69510109 164.85020465 167.67180712 164.85570824 176.64853531 C164.86025208 184.37022361 164.86088375 192.09190508 164.85826957 199.81359428 C164.85671405 204.41916681 164.8564932 209.02472868 164.85980606 213.63030052 C164.86270331 217.960048 164.86067507 222.28976631 164.8549118 226.61951065 C164.85359422 228.20452641 164.85396124 229.78954464 164.85617447 231.3745594 C164.87486101 246.12106458 164.87486101 246.12106458 163.72351074 253.12877274 C163.06351074 253.12877274 162.40351074 253.12877274 161.72351074 253.12877274 C161.72573135 252.08466736 161.72795197 251.04056198 161.73023987 249.96481705 C161.75062061 240.06552619 161.76555423 230.16623966 161.77532291 220.26693249 C161.7805141 215.17912221 161.78754234 210.09132903 161.7989502 205.00352859 C161.80991415 200.08221204 161.81581584 195.16091181 161.81838799 190.23958397 C161.82021813 188.37357769 161.82379118 186.50757217 161.8292408 184.64157295 C161.8563062 174.97897951 161.67790945 165.43886956 160.9471283 155.80182266 C160.5754812 149.69730036 160.61364622 143.59667064 160.64834595 137.4838028 C160.66139828 135.16137916 160.66769564 132.83901421 160.67248535 130.5165596 C160.68376278 125.59560372 160.70303098 120.67469778 160.72351074 115.75377274 C160.74725726 110.02108344 160.76756986 104.28842176 160.77944946 98.55569458 C160.78585885 96.2841674 160.79835566 94.01272876 160.81115723 91.74123001 C160.83560431 84.78922038 160.66291482 78.02245505 159.72351074 71.12877274 C159.66448705 69.27542866 159.63489666 67.42037255 159.66101074 65.56627274 C159.67003418 64.71935867 159.67905762 63.87244461 159.68835449 62.99986649 C159.70575684 62.07367508 159.70575684 62.07367508 159.72351074 61.12877274 C159.06351074 61.12877274 158.40351074 61.12877274 157.72351074 61.12877274 C155.72716986 58.13426142 155.40127485 56.87312149 154.91101074 53.44127274 C153.96525178 48.32216472 152.19003404 44.06847132 148.72351074 40.12877274 C147.73351074 39.79877274 146.74351074 39.46877274 145.72351074 39.12877274 C144.98522949 37.16783524 144.98522949 37.16783524 144.41101074 34.75377274 C143.28121167 30.93310814 143.06485732 30.34964405 139.53601074 28.06627274 C138.60788574 27.75689774 137.67976074 27.44752274 136.72351074 27.12877274 C137.05351074 26.13877274 137.38351074 25.14877274 137.72351074 24.12877274 C136.91913574 23.75752274 136.91913574 23.75752274 136.09851074 23.37877274 C133.72351074 22.12877274 133.72351074 22.12877274 131.16101074 20.31627274 C127.48402063 17.8058404 123.46284651 16.14632568 119.39929199 14.35924149 C117.15326069 13.32639498 115.08251688 12.22191078 112.97351074 10.94127274 C106.99319918 7.60609898 101.19952897 6.86048422 94.48522949 6.34752274 C92.0295058 6.15300997 89.60400118 5.87759187 87.16101074 5.56627274 C81.3792589 4.90996577 75.29361934 4.27206987 69.72351074 6.12877274 C69.72351074 5.46877274 69.72351074 4.80877274 69.72351074 4.12877274 C68.89206543 4.36273758 68.89206543 4.36273758 68.04382324 4.60142899 C66.95714355 4.89340164 66.95714355 4.89340164 65.84851074 5.19127274 C65.12921387 5.3884993 64.40991699 5.58572586 63.66882324 5.78892899 C61.72351074 6.12877274 61.72351074 6.12877274 59.72351074 5.12877274 C59.39351074 5.78877274 59.06351074 6.44877274 58.72351074 7.12877274 C58.72351074 6.13877274 58.72351074 5.14877274 58.72351074 4.12877274 C57.24817871 4.23705399 57.24817871 4.23705399 55.74304199 4.34752274 C46.37449866 4.98818512 37.07277306 5.2193522 27.6817627 5.09166336 C26.83315674 5.08328445 25.98455078 5.07490555 25.11022949 5.06627274 C23.98427368 5.04887039 23.98427368 5.04887039 22.83557129 5.03111649 C20.67440779 5.13104313 18.79816685 5.53240816 16.72351074 6.12877274 C16.72351074 5.46877274 16.72351074 4.80877274 16.72351074 4.12877274 C15.91720215 4.3732515 15.91720215 4.3732515 15.09460449 4.62266922 C12.26787451 5.22602705 9.67697403 5.24094634 6.78601074 5.22642899 C5.07284668 5.221595 5.07284668 5.221595 3.32507324 5.21666336 C2.13655762 5.20828445 0.94804199 5.19990555 -0.27648926 5.19127274 C-1.46500488 5.18676102 -2.65352051 5.1822493 -3.87805176 5.17760086 C-6.08509313 5.1688823 -8.29212802 5.15811178 -10.49914551 5.14464188 C-12.75822941 5.13173396 -15.01736848 5.12877274 -17.27648926 5.12877274 C-18.84485047 5.1240579 -20.41320985 5.11871499 -21.98156738 5.11290359 C-27.13406811 5.09497801 -32.28656429 5.08337292 -37.43908691 5.07384109 C-39.66402659 5.06879551 -41.88896293 5.06195956 -44.1138916 5.05333328 C-47.32434907 5.04121745 -50.53476313 5.03553512 -53.74523926 5.03111649 C-54.74011353 5.0259552 -55.73498779 5.02079391 -56.76000977 5.01547623 C-57.68777222 5.0154007 -58.61553467 5.01532516 -59.57141113 5.01524734 C-60.38541382 5.01302673 -61.1994165 5.01080612 -62.03808594 5.00851822 C-64.25028353 5.12736488 -66.14810345 5.53679752 -68.27648926 6.12877274 C-69.69508098 6.32139622 -71.11756551 6.48676165 -72.54211426 6.62877274 C-73.35035645 6.71127274 -74.15859863 6.79377274 -74.99133301 6.87877274 C-76.24623535 7.00252274 -76.24623535 7.00252274 -77.52648926 7.12877274 C-83.45428115 7.72434366 -89.36760086 8.36633552 -95.27648926 9.12877274 C-95.27648926 9.78877274 -95.27648926 10.44877274 -95.27648926 11.12877274 C-96.02672363 11.45748367 -96.77695801 11.78619461 -97.54992676 12.12486649 C-104.51964403 15.36394164 -109.825908 18.9879115 -115.31555176 24.37096024 C-117.27648926 26.12877274 -117.27648926 26.12877274 -119.27648926 26.12877274 C-119.6342041 26.94861649 -119.6342041 26.94861649 -119.99914551 27.78502274 C-121.5889769 30.70214455 -123.60997795 33.05835498 -125.71398926 35.62877274 C-129.66425837 40.64687216 -131.60104558 45.250772 -132.74133301 51.53502274 C-133.2586625 54.04237153 -134.02567373 55.90975272 -135.27648926 58.12877274 C-135.93648926 58.12877274 -136.59648926 58.12877274 -137.27648926 58.12877274 C-137.60648926 58.78877274 -137.93648926 59.44877274 -138.27648926 60.12877274 C-138.60648926 59.79877274 -138.93648926 59.46877274 -139.27648926 59.12877274 C-138.88940555 53.49455425 -137.22842549 49.23544946 -134.65148926 44.25377274 C-134.29321045 43.55195877 -133.93493164 42.85014481 -133.5657959 42.12706375 C-129.2236863 33.83496706 -123.56306478 26.10799434 -116.27648926 20.12877274 C-115.61648926 20.12877274 -114.95648926 20.12877274 -114.27648926 20.12877274 C-114.27648926 19.46877274 -114.27648926 18.80877274 -114.27648926 18.12877274 C-108.41019831 13.75062177 -101.92043919 10.17985704 -95.27648926 7.12877274 C-94.16273926 6.59252274 -93.04898926 6.05627274 -91.90148926 5.50377274 C-78.57126306 0.44748004 -63.6221722 0.96336049 -49.55383301 0.57408524 C-48.45812642 0.54268133 -48.45812642 0.54268133 -47.34028435 0.51064301 C-31.5599934 0.06496885 -15.78571928 -0.0301688 0 0 Z " fill="#5CACA2" transform="translate(239.2764892578125,88.8712272644043)"/>
<path d="M0 0 C0.12375 0.639375 0.2475 1.27875 0.375 1.9375 C0.58125 2.618125 0.7875 3.29875 1 4 C1.66 4.33 2.32 4.66 3 5 C0.93639168 18.75738882 -4.7133227 33.35285406 -14 44 C-14.66 44 -15.32 44 -16 44 C-16.226875 44.556875 -16.45375 45.11375 -16.6875 45.6875 C-18.37550036 48.66159588 -20.46676517 50.72008865 -23 53 C-23.66 53 -24.32 53 -25 53 C-25 53.66 -25 54.32 -25 55 C-28.48940697 57.60422652 -32.25943771 59.7766939 -36 62 C-36.64324219 62.38671875 -37.28648437 62.7734375 -37.94921875 63.171875 C-47.97452561 68.66889719 -59.02608044 71.21498281 -70.32275391 72.13183594 C-71.31478128 72.21436489 -72.30680866 72.29689384 -73.32889748 72.38192368 C-85.79998493 73.32722854 -98.27389003 73.28880341 -110.7734375 73.265625 C-113.39677974 73.26697818 -116.02012174 73.26892407 -118.64346313 73.27142334 C-124.11112531 73.27502794 -129.5787329 73.27036301 -135.04638672 73.26074219 C-140.58092798 73.25111285 -146.11536122 73.25107728 -151.64990234 73.26074219 C-204.47354729 73.35030402 -204.47354729 73.35030402 -224.6640625 72.171875 C-226.53256363 72.06821625 -226.53256363 72.06821625 -228.43881226 71.96246338 C-238.47423943 71.25895184 -247.71185731 68.75536495 -257.0625 65.125 C-257.71154297 64.89425781 -258.36058594 64.66351563 -259.02929688 64.42578125 C-262.27187574 63.16646194 -263.77271297 62.42732439 -265.43359375 59.3046875 C-265.62050781 58.54414063 -265.80742187 57.78359375 -266 57 C-263.5625 57.375 -263.5625 57.375 -261 58 C-260.67 58.66 -260.34 59.32 -260 60 C-257.3407519 61.08485235 -254.72185847 62.03701849 -252 62.9375 C-251.2884375 63.18951172 -250.576875 63.44152344 -249.84375 63.70117188 C-231.68331906 69.78056271 -213.27928366 69.42352121 -194.38742375 69.33711338 C-190.39740479 69.3218669 -186.40738635 69.32324642 -182.41734314 69.32244873 C-175.72097105 69.31877627 -169.02470268 69.30391503 -162.32836914 69.28125 C-153.787455 69.25239665 -145.24662415 69.24202248 -136.70566654 69.2375679 C-129.29372761 69.23355755 -121.88180605 69.22106279 -114.46987987 69.20722103 C-112.12063242 69.20316467 -109.77138555 69.20021773 -107.42213631 69.19742584 C-73.30461587 71.58867433 -73.30461587 71.58867433 -43 61 C-40.6875 60.25 -40.6875 60.25 -39 60 C-39 59.34 -39 58.68 -39 58 C-37.6696875 57.4121875 -37.6696875 57.4121875 -36.3125 56.8125 C-32.84139458 54.9132159 -30.74793794 52.81663639 -28 50 C-26 48.66666667 -24 47.33333333 -22 46 C-18.36402569 42.84882227 -16.41811388 40.87799527 -16 36 C-14.68 36 -13.36 36 -12 36 C-11.855625 35.38125 -11.71125 34.7625 -11.5625 34.125 C-11 32 -11 32 -10 30 C-9.34 30 -8.68 30 -8 30 C-3.98801288 20.27451336 -1.42598866 10.4134698 0 0 Z " fill="#428177" transform="translate(400,338)"/>
<path d="M0 0 C-0.66 0.33 -1.32 0.66 -2 1 C30.01 1.33 62.02 1.66 95 2 C94.01 2.99 93.02 3.98 92 5 C89.8125 4.6875 89.8125 4.6875 88 4 C87.67 4.66 87.34 5.32 87 6 C87 5.01 87 4.02 87 3 C85.52466797 3.10828125 85.52466797 3.10828125 84.01953125 3.21875 C74.65098792 3.85941238 65.34926231 4.09057947 55.95825195 3.96289062 C55.109646 3.95451172 54.26104004 3.94613281 53.38671875 3.9375 C52.26076294 3.92009766 52.26076294 3.92009766 51.11206055 3.90234375 C48.95089705 4.00227039 47.07465611 4.40363542 45 5 C45 4.34 45 3.68 45 3 C44.19369141 3.24447876 44.19369141 3.24447876 43.37109375 3.49389648 C40.54436376 4.09725432 37.95346329 4.1121736 35.0625 4.09765625 C33.34933594 4.09282227 33.34933594 4.09282227 31.6015625 4.08789062 C30.41304687 4.07951172 29.22453125 4.07113281 28 4.0625 C26.81148437 4.05798828 25.62296875 4.05347656 24.3984375 4.04882812 C22.19139613 4.04010956 19.98436124 4.02933904 17.77734375 4.01586914 C15.51825985 4.00296122 13.25912078 4 11 4 C9.43163879 3.99528517 7.8632794 3.98994225 6.29492188 3.98413086 C1.14242115 3.96620528 -4.01007503 3.95460018 -9.16259766 3.94506836 C-11.38753733 3.94002278 -13.61247367 3.93318682 -15.83740234 3.92456055 C-19.04785981 3.91244472 -22.25827387 3.90676238 -25.46875 3.90234375 C-26.46362427 3.89718246 -27.45849854 3.89202118 -28.48352051 3.88670349 C-29.41128296 3.88662796 -30.33904541 3.88655243 -31.29492188 3.88647461 C-32.10892456 3.884254 -32.92292725 3.88203339 -33.76159668 3.87974548 C-35.97379427 3.99859214 -37.87161419 4.40802478 -40 5 C-41.41859173 5.19262349 -42.84107625 5.35798891 -44.265625 5.5 C-45.07386719 5.5825 -45.88210937 5.665 -46.71484375 5.75 C-47.96974609 5.87375 -47.96974609 5.87375 -49.25 6 C-55.17779189 6.59557093 -61.0911116 7.23756279 -67 8 C-67 8.66 -67 9.32 -67 10 C-67.75023437 10.32871094 -68.50046875 10.65742187 -69.2734375 10.99609375 C-76.24315477 14.2351689 -81.54941874 17.85913876 -87.0390625 23.2421875 C-89 25 -89 25 -91 25 C-91.35771484 25.81984375 -91.35771484 25.81984375 -91.72265625 26.65625 C-93.31248764 29.57337181 -95.33348869 31.92958225 -97.4375 34.5 C-101.38776911 39.51809942 -103.32455632 44.12199927 -104.46484375 50.40625 C-104.98217324 52.91359879 -105.74918447 54.78097999 -107 57 C-107.66 57 -108.32 57 -109 57 C-109.33 57.66 -109.66 58.32 -110 59 C-110.33 58.67 -110.66 58.34 -111 58 C-110.61291629 52.36578152 -108.95193623 48.10667672 -106.375 43.125 C-106.01672119 42.42318604 -105.65844238 41.72137207 -105.28930664 40.99829102 C-100.94719704 32.70619433 -95.28657553 24.97922161 -88 19 C-87.34 19 -86.68 19 -86 19 C-86 18.34 -86 17.68 -86 17 C-80.13370905 12.62184903 -73.64394993 9.0510843 -67 6 C-65.88625 5.46375 -64.7725 4.9275 -63.625 4.375 C-50.41599974 -0.63531044 -35.61087733 -0.15370192 -21.65771484 -0.55761719 C-19.34318623 -0.6259391 -17.02907084 -0.70344451 -14.71484375 -0.78125 C-13.23439163 -0.82607343 -11.75392327 -0.87036462 -10.2734375 -0.9140625 C-9.58599457 -0.93796051 -8.89855164 -0.96185852 -8.1902771 -0.98648071 C-5.13886078 -1.06709397 -2.92629329 -0.9754311 0 0 Z " fill="#68B394" transform="translate(211,90)"/>
<path d="M0 0 C0.33 0 0.66 0 1 0 C1.12375 1.134375 1.2475 2.26875 1.375 3.4375 C1.58125 4.613125 1.7875 5.78875 2 7 C2.66 7.33 3.32 7.66 4 8 C4.02903892 12.08331839 4.04681189 16.1666102 4.0625 20.25 C4.07087891 21.40886719 4.07925781 22.56773437 4.08789062 23.76171875 C4.09111328 24.87675781 4.09433594 25.99179687 4.09765625 27.140625 C4.10289307 28.16704102 4.10812988 29.19345703 4.11352539 30.25097656 C4.01336951 32.67625656 3.69923078 34.68697361 3 37 C3.66 37.33 4.32 37.66 5 38 C4.505 38.495 4.505 38.495 4 39 C3.92686433 41.53049402 3.90752473 44.03304837 3.9375 46.5625 C3.94201172 47.27341797 3.94652344 47.98433594 3.95117188 48.71679688 C3.96299136 50.47790013 3.98092737 52.23896036 4 54 C4.66 54.33 5.32 54.66 6 55 C5.34 55.99 4.68 56.98 4 58 C3.81618817 60.60477064 3.74383937 63.09965761 3.76953125 65.703125 C3.76998947 66.45914001 3.77044769 67.21515503 3.7709198 67.99407959 C3.77393996 69.59453906 3.78181925 71.19499564 3.79418945 72.79541016 C3.8123284 75.22699592 3.81469979 77.65819768 3.81445312 80.08984375 C3.81937347 81.64844075 3.82520403 83.20703519 3.83203125 84.765625 C3.83314407 85.48566711 3.8342569 86.20570923 3.83540344 86.9475708 C3.89753071 93.67182985 4.70118899 99.67826973 7 106 C8 109 8 109 8 113 C8.30404678 114.67225729 8.63128912 116.34080104 9 118 C9.66 118 10.32 118 11 118 C11 119.98 11 121.96 11 124 C10.01 124 9.02 124 8 124 C7.01608939 121.3824265 6.06404966 118.75870673 5.125 116.125 C4.85558594 115.41730469 4.58617188 114.70960938 4.30859375 113.98046875 C-0.90206541 99.11102675 -0.28472584 82.53762441 -0.1953125 66.9921875 C-0.19157015 65.04493355 -0.18872898 63.09767767 -0.18673706 61.15042114 C-0.17919665 56.09041908 -0.15963382 51.03053669 -0.1373291 45.97058105 C-0.11666074 40.78118507 -0.10769103 35.59176926 -0.09765625 30.40234375 C-0.07637623 20.26817735 -0.04236029 10.13409872 0 0 Z " fill="#498C75" transform="translate(96,242)"/>
<path d="M0 0 C1.1583989 -0.00309677 2.31679779 -0.00619354 3.51029968 -0.00938416 C4.78186417 -0.00741531 6.05342865 -0.00544647 7.36352539 -0.00341797 C8.70193005 -0.00456089 10.04033446 -0.0060379 11.3787384 -0.00782776 C14.98964665 -0.01085425 18.60050855 -0.00658395 22.21141052 0.00021744 C24.45641033 0.00438567 26.70140918 0.00735 28.94641113 0.01010132 C47.97800309 0.03649737 67.01125287 0.10135295 86.040802 0.39385986 C88.17214823 0.42552776 90.30356545 0.45277089 92.43502808 0.47528076 C103.84214515 0.60346209 114.46272556 1.06335435 125.52368164 4.12939453 C125.52368164 5.11939453 125.52368164 6.10939453 125.52368164 7.12939453 C120.32691768 6.67285639 115.13783032 6.2162949 109.96118164 5.56689453 C104.1794298 4.91058757 98.09379024 4.27269166 92.52368164 6.12939453 C92.52368164 5.46939453 92.52368164 4.80939453 92.52368164 4.12939453 C54.24368164 3.79939453 15.96368164 3.46939453 -23.47631836 3.12939453 C-23.47631836 2.79939453 -23.47631836 2.46939453 -23.47631836 2.12939453 C-22.34452148 2.06880859 -21.21272461 2.00822266 -20.04663086 1.94580078 C-18.56484691 1.86139537 -17.08307676 1.77674736 -15.60131836 1.69189453 C-14.85495117 1.65257813 -14.10858398 1.61326172 -13.33959961 1.57275391 C-8.63590438 1.29731229 -4.70688666 0.00369228 0 0 Z " fill="#63BCA3" transform="translate(216.476318359375,88.87060546875)"/>
<path d="M0 0 C0 0.66 0 1.32 0 2 C0.928125 2.144375 1.85625 2.28875 2.8125 2.4375 C6 3 6 3 9 4 C9 4.66 9 5.32 9 6 C10.3921875 6.1546875 10.3921875 6.1546875 11.8125 6.3125 C15.24472842 7.05278456 15.66569689 7.66569689 18 10 C20.62570704 10.25069913 20.62570704 10.25069913 23 10 C23 10.66 23 11.32 23 12 C23.66 12 24.32 12 25 12 C25.61875 12.639375 26.2375 13.27875 26.875 13.9375 C29.04586811 16.04451904 30.01545865 16.80744895 33 17 C33.99 16.34 34.98 15.68 36 15 C36.495 17.97 36.495 17.97 37 21 C34 22 34 22 31.0925293 20.78417969 C29.93148682 20.16961914 28.77044434 19.55505859 27.57421875 18.921875 C26.94900833 18.5946344 26.32379791 18.2673938 25.67964172 17.93023682 C23.67717472 16.87950355 21.68235231 15.81510735 19.6875 14.75 C18.35530883 14.04724529 17.02263143 13.34541148 15.68945312 12.64453125 C13.22168036 11.34657018 10.75766503 10.0423371 8.2956543 8.73339844 C7.20808838 8.16137695 6.12052246 7.58935547 5 7 C3.93467041 6.43144287 2.86934082 5.86288574 1.77172852 5.27709961 C-2.09205947 3.49682348 -3.88643816 3.87926427 -8 5 C-11.85480543 6.70821081 -15.5460612 8.67616948 -19.25 10.6875 C-20.22324219 11.20505859 -21.19648438 11.72261719 -22.19921875 12.25585938 C-26.18662513 14.38194658 -30.16080669 16.51827537 -34.08007812 18.76806641 C-35.54864258 19.604104 -35.54864258 19.604104 -37.046875 20.45703125 C-37.92698242 20.96854736 -38.80708984 21.48006348 -39.71386719 22.00708008 C-42 23 -42 23 -45 22 C-42.27644728 19.87686686 -39.52958925 18.09236125 -36.5 16.4375 C-35.7471875 16.02371094 -34.994375 15.60992187 -34.21875 15.18359375 C-32.16206287 14.08645255 -30.09049837 13.03099579 -28 12 C-28 11.34 -28 10.68 -28 10 C-27.34 9.67 -26.68 9.34 -26 9 C-25.01 8.34 -24.02 7.68 -23 7 C-22.01 7.33 -21.02 7.66 -20 8 C-18.65022151 7.36729133 -17.31647119 6.69937532 -16 6 C-15.01 6 -14.02 6 -13 6 C-13 4.68 -13 3.36 -13 2 C-4.57142857 -0.28571429 -4.57142857 -0.28571429 0 0 Z " fill="#48BA9D" transform="translate(253,169)"/>
<path d="M0 0 C0.33 0 0.66 0 1 0 C1.02338193 18.37633254 1.04100518 36.75266122 1.05181217 55.12900543 C1.05696388 63.66185504 1.06398513 72.19469539 1.07543945 80.72753906 C1.08542068 88.16656358 1.09186161 95.60558138 1.09408849 103.04461241 C1.09538976 106.98186288 1.09843861 110.91909418 1.10573006 114.8563385 C1.11254454 118.5662773 1.11460595 122.27618911 1.11310768 125.98613358 C1.11351164 127.98847041 1.11887845 129.99080434 1.12442017 131.99313354 C1.11746668 138.09249074 0.94979954 143.97147944 0 150 C-0.66 150 -1.32 150 -2 150 C-1.85881283 134.56245513 -1.71281444 119.12495874 -1.5625 103.6875 C-1.55147877 102.5553091 -1.54045753 101.42311821 -1.52910233 100.2566185 C-1.2023281 66.83323593 -0.81565562 33.41565344 0 0 Z " fill="#5AA09A" transform="translate(403,192)"/>
<path d="M0 0 C0.33 0 0.66 0 1 0 C1.89435602 6.84922128 2.13560897 13.5190973 2.08984375 20.421875 C2.08605209 21.50579529 2.08226044 22.58971558 2.07835388 23.70648193 C2.02502025 34.79290489 1.85029603 45.87724457 1.62768555 56.96142578 C1.56169483 60.2906204 1.50238651 63.61989417 1.44335938 66.94921875 C1.24721642 77.32890732 1.04205134 87.66387358 0 98 C-0.33 98 -0.66 98 -1 98 C-1.76418919 88.1273371 -2.16133506 78.34422304 -2.125 68.4375 C-2.12378143 67.77422699 -2.12256287 67.11095398 -2.12130737 66.42758179 C-2.09628901 54.55260613 -1.86404605 42.6833628 -1.5625 30.8125 C-1.5429425 30.01447968 -1.52338501 29.21645935 -1.50323486 28.39425659 C-1.26461583 18.89866582 -0.84917146 9.46383358 0 0 Z " fill="#50AFA5" transform="translate(402,158)"/>
<path d="M0 0 C0.66 0 1.32 0 2 0 C1.94268707 0.58010834 1.88537415 1.16021667 1.82632446 1.75790405 C-0.12021222 22.17308256 -0.42034151 42.52433681 -0.60089111 63.01599121 C-0.64166732 67.42869892 -0.69241372 71.84129249 -0.7421875 76.25390625 C-0.83758844 84.83585799 -0.92240318 93.41786884 -1 102 C-1.33 102 -1.66 102 -2 102 C-3.12043135 93.4097318 -3.16363263 84.84188641 -3.16796875 76.1953125 C-3.17119313 74.66567964 -3.17455803 73.13604706 -3.17805481 71.60641479 C-3.18401456 68.4075245 -3.18589823 65.20866107 -3.18530273 62.00976562 C-3.18522184 58.77110159 -3.19210942 55.5325801 -3.20581055 52.29394531 C-3.36009873 15.30012706 -3.36009873 15.30012706 -1 1 C-0.67 0.67 -0.34 0.34 0 0 Z " fill="#58A386" transform="translate(99,150)"/>
<path d="M0 0 C0.33 0 0.66 0 1 0 C0.98143951 0.85920044 0.96287903 1.71840088 0.9437561 2.6036377 C0.78084251 10.72476972 0.68578984 18.84331203 0.66578102 26.9661026 C0.65313153 31.14204603 0.61482312 35.31438093 0.51660156 39.48925781 C0.42265313 43.52352375 0.39777254 47.55299926 0.41953659 51.58824158 C0.41591321 53.12256643 0.38793842 54.65704379 0.33458328 56.19044495 C0.1749891 61.05363859 0.28474338 65.37186661 2 70 C5.82671914 73.98669312 10.98467173 75.92762689 16 78 C17.92205296 78.97397272 19.83799997 79.9602956 21.7421875 80.96875 C23.4510252 81.81674465 25.16191656 82.66061551 26.875 83.5 C27.76574219 83.94085938 28.65648437 84.38171875 29.57421875 84.8359375 C31.71428906 85.8944669 33.85614858 86.94915603 36 88 C35.67 88.66 35.34 89.32 35 90 C33.35 89.67 31.7 89.34 30 89 C29.67 89.66 29.34 90.32 29 91 C29 89.68 29 88.36 29 87 C28.401875 87.226875 27.80375 87.45375 27.1875 87.6875 C26.465625 87.790625 25.74375 87.89375 25 88 C23.4375 86.625 23.4375 86.625 22 85 C20.515 84.505 20.515 84.505 19 84 C18.505 83.01 18.505 83.01 18 82 C16.35 82 14.7 82 13 82 C12.67 81.34 12.34 80.68 12 80 C9.98330173 78.86649466 9.98330173 78.86649466 8 78 C8 77.34 8 76.68 8 76 C6.35 75.67 4.7 75.34 3 75 C3 74.34 3 73.68 3 73 C1.02 73.495 1.02 73.495 -1 74 C-1.13945285 49.31255411 -0.80626363 24.67466904 0 0 Z " fill="#2B8B6D" transform="translate(173,213)"/>
<path d="M0 0 C3.6567827 0.01265221 7.31357003 0.01368911 10.97037125 0.01605082 C17.86889983 0.0222236 24.76736369 0.03857641 31.66586399 0.05874979 C39.53064697 0.08124102 47.39543333 0.0921352 55.26024055 0.10214067 C71.41455029 0.12294727 87.56879523 0.15803986 103.72305679 0.20278788 C102.35977554 1.72231913 102.35977554 1.72231913 100.72305679 3.20278788 C98.53555679 2.89028788 98.53555679 2.89028788 96.72305679 2.20278788 C96.39305679 2.86278788 96.06305679 3.52278788 95.72305679 4.20278788 C95.72305679 3.21278788 95.72305679 2.22278788 95.72305679 1.20278788 C94.24772476 1.31106913 94.24772476 1.31106913 92.74258804 1.42153788 C83.37404471 2.06220026 74.07231911 2.29336734 64.68130875 2.1656785 C63.83270279 2.15729959 62.98409683 2.14892069 62.10977554 2.14028788 C60.98381973 2.12288553 60.98381973 2.12288553 59.83511734 2.10513163 C57.67395384 2.20505827 55.7977129 2.6064233 53.72305679 3.20278788 C53.72305679 2.54278788 53.72305679 1.88278788 53.72305679 1.20278788 C52.9167482 1.44726664 52.9167482 1.44726664 52.09415054 1.69668436 C49.26742056 2.30004219 46.67652008 2.31496148 43.78555679 2.30044413 C42.07239273 2.29561014 42.07239273 2.29561014 40.32461929 2.2906785 C39.13610367 2.28229959 37.94758804 2.27392069 36.72305679 2.26528788 C35.53454117 2.26077616 34.34602554 2.25626444 33.12149429 2.251616 C30.91445292 2.24289744 28.70741803 2.23212692 26.50040054 2.21865702 C24.24131664 2.2057491 21.98217757 2.20278788 19.72305679 2.20278788 C18.15469558 2.19807304 16.5863362 2.19273013 15.01797867 2.18691874 C9.86547794 2.16899315 4.71298176 2.15738806 -0.43954086 2.14785624 C-2.66448054 2.14281065 -4.88941688 2.1359747 -7.11434555 2.12734842 C-10.32480302 2.11523259 -13.53521707 2.10955026 -16.74569321 2.10513163 C-17.74056747 2.09997034 -18.73544174 2.09480906 -19.76046371 2.08949137 C-20.68822617 2.08941584 -21.61598862 2.08934031 -22.57186508 2.08926249 C-23.38586777 2.08704187 -24.19987045 2.08482126 -25.03853989 2.08253336 C-27.2511773 2.20140365 -29.14033065 2.64401332 -31.27694321 3.20278788 C-33.52601473 3.27069462 -35.77695925 3.28778772 -38.02694321 3.26528788 C-39.19741196 3.25626444 -40.36788071 3.247241 -41.57381821 3.23794413 C-42.46584946 3.22634256 -43.35788071 3.214741 -44.27694321 3.20278788 C-44.27694321 2.87278788 -44.27694321 2.54278788 -44.27694321 2.20278788 C-29.60477671 -0.39741987 -14.84528114 -0.06017658 0 0 Z " fill="#35C096" transform="translate(202.2769432067871,91.79721212387085)"/>
<path d="M0 0 C0.9590625 0.56847656 1.918125 1.13695312 2.90625 1.72265625 C6.88794779 4.19332587 6.88794779 4.19332587 11.40625 4.78515625 C13.21557617 5.51953125 13.21557617 5.51953125 15.19921875 6.53515625 C16.2675293 7.0765625 16.2675293 7.0765625 17.35742188 7.62890625 C18.09541016 8.01046875 18.83339844 8.39203125 19.59375 8.78515625 C20.34333984 9.16671875 21.09292969 9.54828125 21.86523438 9.94140625 C23.71498499 10.88395434 25.56098462 11.83385718 27.40625 12.78515625 C27.40625 13.44515625 27.40625 14.10515625 27.40625 14.78515625 C28.210625 15.23890625 29.015 15.69265625 29.84375 16.16015625 C32.40625 17.78515625 32.40625 17.78515625 33.06504822 19.46246338 C33.51561791 22.52966603 33.47890311 25.47249997 33.42797852 28.57324219 C33.41837097 29.24682266 33.40876343 29.92040314 33.39886475 30.61439514 C33.36597778 32.83288365 33.32560667 35.05116884 33.28515625 37.26953125 C33.26084504 38.81080415 33.23700199 40.35208449 33.21360779 41.89337158 C33.15086638 45.94419866 33.08177174 49.99489335 33.01135254 54.04559326 C32.94057914 58.181376 32.87581612 62.31725238 32.81054688 66.453125 C32.68166275 74.56390579 32.54606653 82.67455658 32.40625 90.78515625 C32.07625 90.78515625 31.74625 90.78515625 31.40625 90.78515625 C31.07625 67.35515625 30.74625 43.92515625 30.40625 19.78515625 C20.09111256 14.05452434 10.04616253 8.49971708 -0.53125 3.37890625 C-3.59375 1.78515625 -3.59375 1.78515625 -5.59375 -0.21484375 C-2.59375 -1.21484375 -2.59375 -1.21484375 0 0 Z " fill="#53B5A5" transform="translate(294.59375,191.21484375)"/>
<path d="M0 0 C2.4375 0.375 2.4375 0.375 5 1 C5.33 1.66 5.66 2.32 6 3 C8.6592481 4.08485235 11.27814153 5.03701849 14 5.9375 C14.7115625 6.18951172 15.423125 6.44152344 16.15625 6.70117188 C31.67851726 11.89741032 47.3471074 12.4983 63.5625 12.6875 C65.5566616 12.72077119 67.55080311 12.75526937 69.54492188 12.79101562 C74.36316772 12.87477409 79.18137694 12.94209847 84 13 C84 13.33 84 13.66 84 14 C77.86632951 14.19464643 71.73246263 14.37294839 65.59790039 14.53710938 C63.51769751 14.59495974 61.4376068 14.65702195 59.35766602 14.72363281 C40.21719283 15.33170561 17.28378338 15.96927668 1 4 C0.234375 1.84375 0.234375 1.84375 0 0 Z " fill="#277962" transform="translate(134,395)"/>
<path d="M0 0 C3.747393 1.46239727 7.30415202 3.21484944 10.875 5.0625 C11.61556641 5.43955078 12.35613281 5.81660156 13.11914062 6.20507812 C14.93637522 7.13128157 16.74982404 8.06490629 18.5625 9 C18.5625 9.66 18.5625 10.32 18.5625 11 C13.92705719 13.27227589 11.66042031 14.3778163 6.5625 13 C4.33082815 13.36856864 4.33082815 13.36856864 2.5625 14 C2.8925 12.02 3.2225 10.04 3.5625 8 C4.2225 8 4.8825 8 5.5625 8 C5.2325 7.01 4.9025 6.02 4.5625 5 C2.7560345 3.9853761 2.7560345 3.9853761 0.5625 4 C-1.53413191 5.34329588 -1.53413191 5.34329588 -3.4375 7 C-6.4375 8 -6.4375 8 -9.4375 7 C-10.4275 7.66 -11.4175 8.32 -12.4375 9 C-14.625 8.625 -14.625 8.625 -16.4375 8 C-14.21795349 6.62742523 -11.98914591 5.27740849 -9.75 3.9375 C-9.12416016 3.54755859 -8.49832031 3.15761719 -7.85351562 2.75585938 C-5.20265841 1.18755118 -3.1229469 0 0 0 Z M-8.4375 8 C-6.4375 9 -6.4375 9 -6.4375 9 Z " fill="#24A58E" transform="translate(288.4375,237)"/>
<path d="M0 0 C0.57073242 0.36657715 1.14146484 0.7331543 1.72949219 1.11083984 C-1.73550781 2.59583984 -1.73550781 2.59583984 -5.27050781 4.11083984 C-5.27050781 5.43083984 -5.27050781 6.75083984 -5.27050781 8.11083984 C-5.93050781 8.11083984 -6.59050781 8.11083984 -7.27050781 8.11083984 C-8.0429305 9.94784773 -8.0429305 9.94784773 -8.27050781 12.11083984 C-6.12130806 15.39785123 -2.90334298 16.06135413 0.72949219 17.11083984 C0.72949219 17.77083984 0.72949219 18.43083984 0.72949219 19.11083984 C1.38949219 19.11083984 2.04949219 19.11083984 2.72949219 19.11083984 C2.72949219 19.77083984 2.72949219 20.43083984 2.72949219 21.11083984 C-2.62425431 19.5543193 -7.27201728 17.12908894 -12.14550781 14.48583984 C-12.92925781 14.06560547 -13.71300781 13.64537109 -14.52050781 13.21240234 C-16.43942838 12.18273765 -18.35528384 11.14736418 -20.27050781 10.11083984 C-20.27050781 9.45083984 -20.27050781 8.79083984 -20.27050781 8.11083984 C-17.36711602 6.54315104 -14.44617552 5.01149478 -11.52050781 3.48583984 C-10.69550781 3.03982422 -9.87050781 2.59380859 -9.02050781 2.13427734 C-8.22128906 1.72177734 -7.42207031 1.30927734 -6.59863281 0.88427734 C-5.86547852 0.49675293 -5.13232422 0.10922852 -4.37695312 -0.29003906 C-2.27050781 -0.88916016 -2.27050781 -0.88916016 0 0 Z " fill="#309E7F" transform="translate(213.2705078125,237.88916015625)"/>
<path d="M0 0 C5.28630451 -0.23281652 9.75492117 0.49831315 14.75 2.125 C15.44738281 2.34873291 16.14476562 2.57246582 16.86328125 2.80297852 C26.27178411 5.94672665 34.30275184 10.78044705 42 17 C41.01 17.495 41.01 17.495 40 18 C37.75390625 17.21875 37.75390625 17.21875 35 16 C34.01902344 15.5978125 33.03804688 15.195625 32.02734375 14.78125 C31.00769531 14.3584375 29.98804688 13.935625 28.9375 13.5 C27.91527344 13.0771875 26.89304687 12.654375 25.83984375 12.21875 C23.50773745 11.21790108 21.26318206 10.14311436 19 9 C16.6800393 7.98650181 14.35320415 6.99073133 12.0234375 6 C10 5 10 5 8 3 C6.03309626 2.32707499 6.03309626 2.32707499 3.875 1.875 C2.59625 1.58625 1.3175 1.2975 0 1 C0 0.67 0 0.34 0 0 Z " fill="#58B9AA" transform="translate(334,91)"/>
<path d="M0 0 C-0.53625 0.2578125 -1.0725 0.515625 -1.625 0.78125 C-4.48374796 2.24823908 -7.22825878 3.87426717 -10 5.5 C-16.07652493 9.01698638 -22.28257133 12.23732594 -28.5625 15.375 C-29.84737305 16.01791992 -29.84737305 16.01791992 -31.15820312 16.67382812 C-35.05404799 18.6048121 -38.91987459 20.48142572 -43 22 C-43.33 21.34 -43.66 20.68 -44 20 C-43.16855469 19.60167969 -42.33710938 19.20335937 -41.48046875 18.79296875 C-40.39378906 18.26316406 -39.30710938 17.73335937 -38.1875 17.1875 C-37.10855469 16.66542969 -36.02960938 16.14335937 -34.91796875 15.60546875 C-32.40280413 14.22162315 -30.93648211 13.03422253 -29 11 C-28.34 11 -27.68 11 -27 11 C-27 10.34 -27 9.68 -27 9 C-26.34 8.67 -25.68 8.34 -25 8 C-24.01 7.34 -23.02 6.68 -22 6 C-21.01 6.33 -20.02 6.66 -19 7 C-17.65022151 6.36729133 -16.31647119 5.69937532 -15 5 C-14.01 5 -13.02 5 -12 5 C-12 3.68 -12 2.36 -12 1 C-8.0186217 -0.3271261 -4.14954773 -0.06915913 0 0 Z " fill="#38B48C" transform="translate(252,170)"/>
<path d="M0 0 C-3.66701898 2.41982583 -6.93961827 3.62682308 -11.1875 4.6875 C-18.2002094 6.78025675 -22.71433922 10.0372574 -28 15 C-28.92554687 15.8353125 -29.85109375 16.670625 -30.8046875 17.53125 C-36.9611346 23.15205752 -36.9611346 23.15205752 -39 31 C-39.33 30.01 -39.66 29.02 -40 28 C-42.33524782 30.25740623 -44.18705073 32.2805761 -46 35 C-46.66 34.67 -47.32 34.34 -48 34 C-46.60926736 32.10024104 -45.21267198 30.20528399 -43.8125 28.3125 C-43.03519531 27.25675781 -42.25789063 26.20101562 -41.45703125 25.11328125 C-39.12957593 22.16418445 -36.71039235 19.59568923 -34 17 C-33.23300781 16.2471875 -32.46601562 15.494375 -31.67578125 14.71875 C-19.19366197 3 -19.19366197 3 -12 3 C-12 2.34 -12 1.68 -12 1 C-3.96428571 -1.27678571 -3.96428571 -1.27678571 0 0 Z " fill="#32BC82" transform="translate(156,97)"/>
<path d="M0 0 C0.33 0.66 0.66 1.32 1 2 C1.66 2.33 2.32 2.66 3 3 C2.67 3.66 2.34 4.32 2 5 C2.66 5 3.32 5 4 5 C4.45375 5.763125 4.9075 6.52625 5.375 7.3125 C6.80589007 10.07916215 6.80589007 10.07916215 9.1875 11.5625 C10.0846875 12.2740625 10.0846875 12.2740625 11 13 C11 14.32 11 15.64 11 17 C11.61875 17.309375 12.2375 17.61875 12.875 17.9375 C14.25 18.625 15.625 19.3125 17 20 C17 20.66 17 21.32 17 22 C17.99 22.33 18.98 22.66 20 23 C21.84499398 24.87617698 23.3683599 26.92737609 25 29 C19.27931403 26.81267889 14.01962831 24.79263376 10 20 C10 19.34 10 18.68 10 18 C9.34 18 8.68 18 8 18 C6.7109375 16.5390625 6.7109375 16.5390625 5.375 14.625 C4.92898437 13.99851562 4.48296875 13.37203125 4.0234375 12.7265625 C3 11 3 11 3 9 C2.34 9 1.68 9 1 9 C0.01 6.69 -0.98 4.38 -2 2 C-1.34 2 -0.68 2 0 2 C0 1.34 0 0.68 0 0 Z " fill="#36816A" transform="translate(108,366)"/>
<path d="M0 0 C0 4.62 0 9.24 0 14 C-3.31082088 12.67567165 -6.56255723 11.33019826 -9.8125 9.875 C-10.60269531 9.52179688 -11.39289063 9.16859375 -12.20703125 8.8046875 C-12.79871094 8.53914063 -13.39039063 8.27359375 -14 8 C-13 5 -13 5 -10.8203125 3.61328125 C-9.93085938 3.18402344 -9.04140625 2.75476563 -8.125 2.3125 C-7.24070312 1.87550781 -6.35640625 1.43851562 -5.4453125 0.98828125 C-3 0 -3 0 0 0 Z " fill="#499E92" transform="translate(315,257)"/>
<path d="M0 0 C4.19075691 0.83815138 6.28073843 1.50669849 9.8125 3.5625 C10.60269531 4.01753906 11.39289063 4.47257812 12.20703125 4.94140625 C12.79871094 5.29074219 13.39039063 5.64007813 14 6 C14 6.66 14 7.32 14 8 C12.04414675 9.00484204 10.08523763 10.00373805 8.125 11 C7.03445312 11.556875 5.94390625 12.11375 4.8203125 12.6875 C2 14 2 14 0 14 C0 9.38 0 4.76 0 0 Z " fill="#1F9374" transform="translate(185,257)"/>
<path d="M0 0 C3.52892447 1.41156979 6.54862203 2.77384533 9.8125 4.625 C10.99779297 5.29402344 10.99779297 5.29402344 12.20703125 5.9765625 C12.79871094 6.31429687 13.39039063 6.65203125 14 7 C11.72402354 9.49552403 9.39278822 11.06622986 6.4375 12.6875 C5.25994141 13.34298828 5.25994141 13.34298828 4.05859375 14.01171875 C2 15 2 15 0 15 C0 10.05 0 5.1 0 0 Z " fill="#419980" transform="translate(185,223)"/>
<path d="M0 0 C2.45956421 1.06959534 2.45956421 1.06959534 5 3 C5.63491821 6.06724548 5.63491821 6.06724548 5.64697266 9.88647461 C5.65573425 10.5827446 5.66449585 11.27901459 5.67352295 11.99638367 C5.69553743 14.29900362 5.68095806 16.59970415 5.6640625 18.90234375 C5.6674305 20.50273507 5.67228298 22.10312391 5.67855835 23.70350647 C5.68593268 27.05868874 5.67520848 30.41320562 5.65185547 33.76831055 C5.62338928 38.06741628 5.6397528 42.36495995 5.66971779 46.66400814 C5.68779594 49.96952559 5.68203021 53.27467345 5.66907883 56.5802021 C5.66574499 58.16502632 5.66983118 59.74988417 5.68147659 61.33466911 C5.69419265 63.55205822 5.67480304 65.76692916 5.64697266 67.98413086 C5.64299469 69.24527206 5.63901672 70.50641327 5.63491821 71.80577087 C5 75 5 75 2.65878296 77.32911682 C-4.77373223 82 -4.77373223 82 -8 82 C-7.67 81.01 -7.34 80.02 -7 79 C-5.68 79 -4.36 79 -3 79 C-2.67 78.01 -2.34 77.02 -2 76 C-1.01 76.33 -0.02 76.66 1 77 C1.33 76.01 1.66 75.02 2 74 C2.66 74 3.32 74 4 74 C3.93878404 65.20276713 3.86167479 56.40585889 3.76428509 47.60895157 C3.71956188 43.52415185 3.68031024 39.43945231 3.65356445 35.35449219 C3.62755064 31.41208213 3.58716239 27.47005719 3.53681374 23.52788544 C3.52013191 22.02405336 3.5086258 20.52015464 3.50238609 19.01624298 C3.49275888 16.90918122 3.46471877 14.80310761 3.43237305 12.69628906 C3.42126999 11.49715881 3.41016693 10.29802856 3.39872742 9.06256104 C2.9659688 5.73861185 2.1470424 4.48740466 0 2 C0 1.34 0 0.68 0 0 Z " fill="#D8FBFA" transform="translate(321,208)"/>
<path d="M0 0 C0 4.62 0 9.24 0 14 C-4.19075691 13.16184862 -6.28073843 12.49330151 -9.8125 10.4375 C-10.60269531 9.98246094 -11.39289063 9.52742187 -12.20703125 9.05859375 C-12.79871094 8.70925781 -13.39039063 8.35992187 -14 8 C-11.60523691 5.29597943 -9.11049494 3.88308282 -5.875 2.3125 C-4.98554688 1.87550781 -4.09609375 1.43851563 -3.1796875 0.98828125 C-1 0 -1 0 0 0 Z " fill="#40A999" transform="translate(315,223)"/>
<path d="M0 0 C1.78329758 3.56659516 2.25022732 4.52581771 2.24291992 8.18261719 C2.24599655 8.99736511 2.24907318 9.81211304 2.25224304 10.65155029 C2.24505753 11.52450745 2.23787201 12.3974646 2.23046875 13.296875 C2.23001053 14.20447571 2.22955231 15.11207642 2.2290802 16.04718018 C2.22606159 17.96701362 2.21818699 19.8868447 2.20581055 21.80664062 C2.18765335 24.72535016 2.18530036 27.64374008 2.18554688 30.5625 C2.18062721 32.43229438 2.17479694 34.30208662 2.16796875 36.171875 C2.16685593 37.03673523 2.1657431 37.90159546 2.16459656 38.79266357 C2.12486436 43.94524334 1.73745918 48.89921002 1 54 C0.34 54 -0.32 54 -1 54 C-0.67 36.18 -0.34 18.36 0 0 Z " fill="#519793" transform="translate(402,288)"/>
<path d="M0 0 C0.99 0.495 0.99 0.495 2 1 C2.02903892 5.08331839 2.04681189 9.1666102 2.0625 13.25 C2.07087891 14.40886719 2.07925781 15.56773437 2.08789062 16.76171875 C2.09111328 17.87675781 2.09433594 18.99179687 2.09765625 20.140625 C2.10289307 21.16704102 2.10812988 22.19345703 2.11352539 23.25097656 C2.01336951 25.67625656 1.69923078 27.68697361 1 30 C1.66 30.33 2.32 30.66 3 31 C2.67 31.33 2.34 31.66 2 32 C1.92686433 34.53049402 1.90752473 37.03304837 1.9375 39.5625 C1.94201172 40.27341797 1.94652344 40.98433594 1.95117188 41.71679688 C1.96299136 43.47790013 1.98092737 45.23896036 2 47 C2.66 47.33 3.32 47.66 4 48 C3.34 48.99 2.68 49.98 2 51 C1.72289637 54.10479949 1.72289637 54.10479949 1.8046875 57.63671875 C1.81435547 59.58481445 1.81435547 59.58481445 1.82421875 61.57226562 C1.8409294 62.94401307 1.85785929 64.31575786 1.875 65.6875 C1.88503326 67.07095718 1.89415851 68.45442127 1.90234375 69.83789062 C1.92595033 73.22543452 1.95887963 76.61263072 2 80 C1.01 80.495 1.01 80.495 0 81 C0 54.27 0 27.54 0 0 Z " fill="#1F8965" transform="translate(98,249)"/>
<path d="M0 0 C0.66 0.33 1.32 0.66 2 1 C1.75390625 2.84765625 1.75390625 2.84765625 1 5 C-10.14642329 13.46723765 -26.43271429 15.78557451 -40 16 C-37.54925828 13.54925828 -36.29668082 13.52645927 -32.9140625 13 C-31.90085937 12.835 -30.88765625 12.67 -29.84375 12.5 C-28.7815625 12.335 -27.719375 12.17 -26.625 12 C-24.53291204 11.67263171 -22.44171328 11.33951688 -20.3515625 11 C-19.42166504 10.855625 -18.49176758 10.71125 -17.53369141 10.5625 C-14.2426175 9.83185495 -11.84614577 8.88140184 -9.5 6.4375 C-7.72539815 4.73683989 -6.38993744 4.41205818 -4 4 C-4 3.34 -4 2.68 -4 2 C-2.125 0.9375 -2.125 0.9375 0 0 Z " fill="#498582" transform="translate(365,394)"/>
<path d="M0 0 C1.7104574 0.80716655 3.39902638 1.66144569 5.0703125 2.546875 C6.05 3.0625 7.0296875 3.578125 8.0390625 4.109375 C9.56660156 4.92148438 9.56660156 4.92148438 11.125 5.75 C13.12715841 6.80813553 15.12975925 7.86543438 17.1328125 8.921875 C18.59315918 9.69241211 18.59315918 9.69241211 20.08300781 10.47851562 C24.36034596 12.70954771 28.67451521 14.86410544 33 17 C28.29148227 18.33978732 26.35949259 17.0959099 22 15 C22 14.34 22 13.68 22 13 C21.42725342 12.87906982 20.85450684 12.75813965 20.2644043 12.63354492 C17.87642441 11.96542548 15.9531624 11.03316244 13.76953125 9.86328125 C12.96580078 9.45142578 12.16207031 9.03957031 11.33398438 8.61523438 C9.66354338 7.75219476 8.00179206 6.8721075 6.34960938 5.97460938 C1.07311239 3.31747128 -2.25571167 2.56839106 -7.9855957 4.21557617 C-10.06454397 5.0251339 -12.02477151 5.96461807 -14 7 C-14.66 6.34 -15.32 5.68 -16 5 C-14.09118566 3.96455826 -12.17260796 2.94709915 -10.25 1.9375 C-8.64898437 1.08478516 -8.64898437 1.08478516 -7.015625 0.21484375 C-3.70515468 -1.11877836 -3.209783 -1.10858644 0 0 Z " fill="#4CB196" transform="translate(253,185)"/>
<path d="M0 0 C0.12375 0.639375 0.2475 1.27875 0.375 1.9375 C0.58125 2.618125 0.7875 3.29875 1 4 C1.66 4.33 2.32 4.66 3 5 C1.38053732 15.79641787 -2.00429441 29.00429441 -10 37 C-10.66 36.67 -11.32 36.34 -12 36 C-11.49396008 33.83125748 -11.00016187 32.00032373 -10 30 C-9.34 30 -8.68 30 -8 30 C-3.98801288 20.27451336 -1.42598866 10.4134698 0 0 Z " fill="#4E8B87" transform="translate(400,338)"/>
<path d="M0 0 C-0.66 1.32 -1.32 2.64 -2 4 C-2.66 3.67 -3.32 3.34 -4 3 C-4.66 4.32 -5.32 5.64 -6 7 C-2.968008 10.1835916 -0.20965525 12.59678158 4 14 C4 14.99 4 15.98 4 17 C-0.62675657 15.6077541 -4.64686231 13.70479016 -8.875 11.375 C-10.02742187 10.74335938 -11.17984375 10.11171875 -12.3671875 9.4609375 C-13.67042969 8.73777344 -13.67042969 8.73777344 -15 8 C-12.73762373 5.52733876 -10.42546667 3.936134 -7.5 2.3125 C-6.33984375 1.65701172 -6.33984375 1.65701172 -5.15625 0.98828125 C-3 0 -3 0 0 0 Z " fill="#2D8D75" transform="translate(208,273)"/>
<path d="M0 0 C0.69609375 0.35964844 1.3921875 0.71929687 2.109375 1.08984375 C2.81578125 1.45207031 3.5221875 1.81429688 4.25 2.1875 C4.78109375 2.46464844 5.3121875 2.74179687 5.859375 3.02734375 C4.869375 4.51234375 4.869375 4.51234375 3.859375 6.02734375 C0.234375 6.71484375 0.234375 6.71484375 -3.140625 7.02734375 C-2.810625 6.03734375 -2.480625 5.04734375 -2.140625 4.02734375 C-2.800625 4.68734375 -3.460625 5.34734375 -4.140625 6.02734375 C-6.3046875 6.22265625 -6.3046875 6.22265625 -8.765625 6.15234375 C-9.58289063 6.13429688 -10.40015625 6.11625 -11.2421875 6.09765625 C-11.86867188 6.07445312 -12.49515625 6.05125 -13.140625 6.02734375 C-13.140625 5.36734375 -13.140625 4.70734375 -13.140625 4.02734375 C-14.460625 4.35734375 -15.780625 4.68734375 -17.140625 5.02734375 C-15.76096766 2.26802907 -14.05481885 1.73313241 -11.328125 0.33984375 C-10.01908203 -0.34658203 -10.01908203 -0.34658203 -8.68359375 -1.046875 C-5.0584525 -2.36662688 -3.39506355 -1.54264749 0 0 Z " fill="#259887" transform="translate(293.140625,271.97265625)"/>
<path d="M0 0 C0.495 0.268125 0.99 0.53625 1.5 0.8125 C4.12144093 2.14623581 4.12144093 2.14623581 7.625 3 C15.07419841 5.71134051 21.46058976 13.05863235 25 20 C25 20.99 25 21.98 25 23 C22 22 22 22 20.3125 19.25 C17.45046111 15.22767508 14.26637371 13.34029238 10 11 C10.33 10.01 10.66 9.02 11 8 C10.46375 7.7525 9.9275 7.505 9.375 7.25 C1.57142857 3.14285714 1.57142857 3.14285714 0 0 Z " fill="#67B8AC" transform="translate(366,105)"/>
<path d="M0 0 C4.66034999 0.62078021 8.49781563 2.55911377 12.625 4.6875 C13.32560547 5.04328125 14.02621094 5.3990625 14.74804688 5.765625 C20.5592772 8.73238302 26.30542939 11.81490119 32 15 C31.67 15.66 31.34 16.32 31 17 C30.45730469 16.7834375 29.91460937 16.566875 29.35546875 16.34375 C28.64003906 16.0653125 27.92460937 15.786875 27.1875 15.5 C26.47980469 15.2215625 25.77210938 14.943125 25.04296875 14.65625 C22.88158784 13.8470838 22.88158784 13.8470838 20 14 C20 13.34 20 12.68 20 12 C18.68 11.34 17.36 10.68 16 10 C16 9.34 16 8.68 16 8 C12.30458414 7.04975021 9.69541586 7.04975021 6 8 C5.566875 7.195625 5.13375 6.39125 4.6875 5.5625 C3.19525998 2.72153646 3.19525998 2.72153646 0 2 C0 1.34 0 0.68 0 0 Z " fill="#2D8572" transform="translate(211,304)"/>
<path d="M0 0 C2.48046512 0.01005287 4.96093421 0.01917463 7.44140625 0.02734375 C13.46102521 0.04916736 19.48049362 0.08246102 25.5 0.125 C24.84 1.115 24.18 2.105 23.5 3.125 C22.51 2.795 21.52 2.465 20.5 2.125 C18.97161886 2.0333731 17.43957174 1.99709789 15.90844727 1.99560547 C14.98060928 1.99245331 14.0527713 1.98930115 13.09681702 1.98605347 C12.09678146 1.9880777 11.09674591 1.99010193 10.06640625 1.9921875 C9.03692368 1.99123077 8.0074411 1.99027405 6.94676208 1.98928833 C4.76878803 1.98860761 2.59081195 1.9904544 0.4128418 1.99462891 C-2.92078211 1.9999732 -6.25427095 1.99468306 -9.58789062 1.98828125 C-11.7031253 1.98894216 -13.81835989 1.99022358 -15.93359375 1.9921875 C-17.43061073 1.98915115 -17.43061073 1.98915115 -18.95787048 1.98605347 C-19.88886063 1.98920563 -20.81985077 1.99235779 -21.77905273 1.99560547 C-22.59607162 1.99640106 -23.41309052 1.99719666 -24.25486755 1.99801636 C-26.4674095 2.1231567 -28.36285939 2.56690814 -30.5 3.125 C-32.74907152 3.19290675 -35.00001605 3.20999984 -37.25 3.1875 C-38.42046875 3.17847656 -39.5909375 3.16945313 -40.796875 3.16015625 C-41.68890625 3.14855469 -42.5809375 3.13695313 -43.5 3.125 C-43.5 2.795 -43.5 2.465 -43.5 2.125 C-29.03372604 -0.34832016 -14.63265935 -0.10377773 0 0 Z " fill="#34C18B" transform="translate(201.5,91.875)"/>
<path d="M0 0 C-2.74287132 2.16396403 -5.45389216 3.84065242 -8.58984375 5.375 C-9.89018555 6.01695312 -9.89018555 6.01695312 -11.21679688 6.671875 C-12.11462891 7.11015625 -13.01246094 7.5484375 -13.9375 8 C-20.57234496 11.21738254 -20.57234496 11.21738254 -27.00390625 14.8125 C-29 16 -29 16 -31 16 C-31 15.01 -31 14.02 -31 13 C-30.32453125 12.74605469 -29.6490625 12.49210938 -28.953125 12.23046875 C-28.06109375 11.88628906 -27.1690625 11.54210937 -26.25 11.1875 C-25.36828125 10.85105469 -24.4865625 10.51460937 -23.578125 10.16796875 C-20.97520016 8.98876492 -19.0219997 8.026724 -17 6 C-17 4.35 -17 2.7 -17 1 C-13.7 1.66 -10.4 2.32 -7 3 C-7 2.34 -7 1.68 -7 1 C-4.53721199 -0.231394 -2.7204945 -0.07159196 0 0 Z " fill="#23B27E" transform="translate(209,192)"/>
<path d="M0 0 C16.17 0 32.34 0 49 0 C43.47393031 2.76303484 40.02703771 3.0935829 33.90625 2.94921875 C33.0037854 2.9303511 32.1013208 2.91148346 31.17150879 2.89204407 C29.26157501 2.85013294 27.35170156 2.80539264 25.44189453 2.75805664 C22.51216656 2.6877918 19.58242116 2.63349997 16.65234375 2.58007812 C14.7994564 2.53743641 12.94659053 2.49384845 11.09375 2.44921875 C10.21352173 2.43453049 9.33329346 2.41984222 8.4263916 2.40470886 C2.22890702 2.22890702 2.22890702 2.22890702 0 0 Z " fill="#1E7C70" transform="translate(282,407)"/>
<path d="M0 0 C2.15377564 2.62198774 3.40072174 4.64404172 4 8 C4.66 7.67 5.32 7.34 6 7 C6.98043964 9.94131891 7.11621202 11.82501665 7.09765625 14.88671875 C7.09282227 16.2934082 7.09282227 16.2934082 7.08789062 17.72851562 C7.07951172 18.70498047 7.07113281 19.68144531 7.0625 20.6875 C7.05798828 21.67556641 7.05347656 22.66363281 7.04882812 23.68164062 C7.03704303 26.12115474 7.02059011 28.56054689 7 31 C2.98076991 26.98076991 3.94519704 19.84852124 3.9375 14.4375 C3.95326044 12.95827058 3.97220987 11.47905232 4 10 C3.34 10 2.68 10 2 10 C-0.4294516 6.3558226 -0.16179575 4.28758728 0 0 Z " fill="#5EB7A9" transform="translate(395,140)"/>
<path d="M0 0 C4.95 0.99 9.9 1.98 15 3 C15 3.99 15 4.98 15 6 C9.80323604 5.54346186 4.61414868 5.08690037 -0.5625 4.4375 C-6.34425184 3.78119303 -12.4298914 3.14329713 -18 5 C-18 4.34 -18 3.68 -18 3 C-18.99 2.67 -19.98 2.34 -21 2 C-14.07 2 -7.14 2 0 2 C0 1.34 0 0.68 0 0 Z " fill="#46C3AA" transform="translate(327,90)"/>
<path d="M0 0 C2.18700941 2.18700941 2.3802485 3.07831434 3 6 C3.33 6.99 3.66 7.98 4 9 C4 10.32 4 11.64 4 13 C4.30404678 14.67225729 4.63128912 16.34080104 5 18 C5.66 18 6.32 18 7 18 C7 19.98 7 21.96 7 24 C6.01 24 5.02 24 4 24 C-1.92482916 8.43963554 -1.92482916 8.43963554 0 0 Z " fill="#24755B" transform="translate(100,342)"/>
<path d="M0 0 C2 3 2 3 1.828125 5.33984375 C1.63734375 6.19707031 1.4465625 7.05429688 1.25 7.9375 C0.97929688 9.21947266 0.97929688 9.21947266 0.703125 10.52734375 C0.03380796 12.88110869 -0.82767458 14.85901587 -2 17 C-2.66 17 -3.32 17 -4 17 C-4.33 17.66 -4.66 18.32 -5 19 C-5.33 18.67 -5.66 18.34 -6 18 C-5.71000675 11.33015524 -2.90353507 5.92492581 0 0 Z " fill="#45A47C" transform="translate(106,130)"/>
<path d="M0 0 C0 0.66 0 1.32 0 2 C-2.5614657 4.29648649 -3.47967572 5 -7 5 C-7.268125 5.598125 -7.53625 6.19625 -7.8125 6.8125 C-9.05904058 9.10875896 -9.93414048 10.40530142 -12 12 C-14.69921875 12.29296875 -14.69921875 12.29296875 -17.6875 12.1875 C-18.68136719 12.16042969 -19.67523438 12.13335937 -20.69921875 12.10546875 C-21.45847656 12.07066406 -22.21773438 12.03585937 -23 12 C-19.14365201 8.81387292 -14.78024848 6.62969027 -10.375 4.3125 C-9.59898437 3.89677734 -8.82296875 3.48105469 -8.0234375 3.05273438 C-7.2809375 2.66021484 -6.5384375 2.26769531 -5.7734375 1.86328125 C-5.09716309 1.50532471 -4.42088867 1.14736816 -3.72412109 0.77856445 C-2 0 -2 0 0 0 Z " fill="#308A80" transform="translate(295,300)"/>
<path d="M0 0 C1.45945288 0.08708669 2.91765868 0.19526907 4.375 0.3125 C5.59316406 0.39951172 5.59316406 0.39951172 6.8359375 0.48828125 C9 1 9 1 11 4 C14.06556598 4.73343428 14.06556598 4.73343428 17 5 C17 4.34 17 3.68 17 3 C20.71973879 0.15549386 23.37390802 -0.3227506 28 0 C17.20925808 8.27615726 17.20925808 8.27615726 12 7.625 C11.01 7.08875 10.02 6.5525 9 6 C7.82824219 5.37351563 7.82824219 5.37351563 6.6328125 4.734375 C4.39994815 3.52403731 2.19474272 2.27782799 0 1 C0 0.67 0 0.34 0 0 Z " fill="#47A48F" transform="translate(236,236)"/>
<path d="M0 0 C2.4375 0.375 2.4375 0.375 5 1 C5.33 1.66 5.66 2.32 6 3 C7.8080828 3.73238797 9.64742344 4.38884072 11.5 5 C13.35257656 5.61115928 15.1919172 6.26761203 17 7 C17.33 7.66 17.66 8.32 18 9 C19.97888961 9.72693904 21.97954558 10.39816251 24 11 C24 11.33 24 11.66 24 12 C18.70362576 11.42296312 14.13690494 10.20021329 9.1875 8.25 C8.18686523 7.89035156 8.18686523 7.89035156 7.16601562 7.5234375 C3.87051287 6.23317002 2.25091078 5.46800609 0.55078125 2.296875 C0.36902344 1.53890625 0.18726563 0.7809375 0 0 Z " fill="#2F7861" transform="translate(134,395)"/>
<path d="M0 0 C1.65 0 3.3 0 5 0 C5 0.66 5 1.32 5 2 C5.83144531 2.18175781 6.66289062 2.36351562 7.51953125 2.55078125 C8.60621094 2.80214844 9.69289062 3.05351562 10.8125 3.3125 C12.43091797 3.67794922 12.43091797 3.67794922 14.08203125 4.05078125 C17.00777159 5.00252811 18.0790643 5.69487716 20 8 C21.31963709 9.01800576 22.65009646 10.02248365 24 11 C23.67 11.66 23.34 12.32 23 13 C19.34934247 11.21804142 15.70536201 9.42283443 12.0625 7.625 C11.02158203 7.11710938 9.98066406 6.60921875 8.90820312 6.0859375 C7.91884766 5.59609375 6.92949219 5.10625 5.91015625 4.6015625 C4.99371338 4.15119629 4.07727051 3.70083008 3.13305664 3.23681641 C1 2 1 2 0 0 Z " fill="#3EA788" transform="translate(196,215)"/>
<path d="M0 0 C0.66 0.33 1.32 0.66 2 1 C1.67 1.66 1.34 2.32 1 3 C1.92232422 3.03867188 1.92232422 3.03867188 2.86328125 3.078125 C9.60940325 3.55153707 9.60940325 3.55153707 11.6875 5.9375 C12.120625 6.618125 12.55375 7.29875 13 8 C16.08777172 9.28008262 16.08777172 9.28008262 19 10 C19 10.66 19 11.32 19 12 C19.66 12 20.32 12 21 12 C21 12.66 21 13.32 21 14 C15.6462535 12.44347945 10.99849053 10.0182491 6.125 7.375 C5.34125 6.95476562 4.5575 6.53453125 3.75 6.1015625 C1.83107943 5.0718978 -0.08477603 4.03652433 -2 3 C-2 2.34 -2 1.68 -2 1 C-1.34 0.67 -0.68 0.34 0 0 Z " fill="#459D85" transform="translate(195,245)"/>
<path d="M0 0 C4.49797113 1.68673918 8.72886302 3.81673892 13 6 C13 6.66 13 7.32 13 8 C10.71070947 9.17154293 8.41881638 10.33738074 6.125 11.5 C5.47402344 11.83386719 4.82304687 12.16773438 4.15234375 12.51171875 C-0.7734375 15 -0.7734375 15 -3 15 C-3 14.34 -3 13.68 -3 13 C-0.35261084 11.5393715 0.89448334 11 4 11 C4 10.01 4 9.02 4 8 C5.65 7.67 7.3 7.34 9 7 C9 6.34 9 5.68 9 5 C7.88625 4.9175 6.7725 4.835 5.625 4.75 C2 4 2 4 0.5625 1.9375 C0.2840625 0.9784375 0.2840625 0.9784375 0 0 Z " fill="#4CAC99" transform="translate(294,207)"/>
<path d="M0 0 C2.64 1.32 5.28 2.64 8 4 C3.25306871 8.27223816 -3.43426891 13 -10 13 C-9.67 12.01 -9.34 11.02 -9 10 C-6.71656402 9.05149582 -4.41923272 8.47853022 -2.03125 7.84375 C-1.3609375 7.5653125 -0.690625 7.286875 0 7 C1.34513424 3.85938975 1.34513424 3.85938975 0 0 Z " fill="#2F8C81" transform="translate(299,276)"/>
<path d="M0 0 C0 3.3 0 6.6 0 10 C-2.97 9.505 -2.97 9.505 -6 9 C-5.979375 8.21625 -5.95875 7.4325 -5.9375 6.625 C-5.81315937 4.01885039 -5.81315937 4.01885039 -7 2 C-4 0 -4 0 0 0 Z " fill="#209F8D" transform="translate(314,258)"/>
<path d="M0 0 C0.33 0.99 0.66 1.98 1 3 C-1.64 3.33 -4.28 3.66 -7 4 C-7 4.66 -7 5.32 -7 6 C-8.26691507 6.67408308 -9.53870749 7.33900497 -10.8125 8 C-11.52019531 8.37125 -12.22789062 8.7425 -12.95703125 9.125 C-15 10 -15 10 -18 10 C-17 7 -17 7 -14.890625 5.68359375 C-14.01921875 5.27238281 -13.1478125 4.86117187 -12.25 4.4375 C-11.38890625 4.02371094 -10.5278125 3.60992187 -9.640625 3.18359375 C-2.5379538 0 -2.5379538 0 0 0 Z " fill="#5FB090" transform="translate(151,94)"/>
<path d="M0 0 C6.75 0.875 6.75 0.875 9 2 C9.625 4.0625 9.625 4.0625 10 6 C8.61217515 6.8466034 7.21430603 7.67675339 5.8125 8.5 C5.03519531 8.9640625 4.25789063 9.428125 3.45703125 9.90625 C0.75896614 11.10729647 -1.0806982 11.20741043 -4 11 C-0.76478258 8.51137122 2.59260295 6.24578442 6 4 C4.02 3.01 2.04 2.02 0 1 C0 0.67 0 0.34 0 0 Z " fill="#D4F1EF" transform="translate(300,276)"/>
<path d="M0 0 C11.22 0 22.44 0 34 0 C33.01 0.99 32.02 1.98 31 3 C28.8125 2.6875 28.8125 2.6875 27 2 C26.67 2.66 26.34 3.32 26 4 C26 3.01 26 2.02 26 1 C24.87722656 1.08378906 23.75445312 1.16757813 22.59765625 1.25390625 C14.92484072 1.78905966 7.63295672 2.24902928 0 1 C0 0.67 0 0.34 0 0 Z " fill="#3CC0A0" transform="translate(272,92)"/>
<path d="M0 0 C0.83595703 0.00451172 1.67191406 0.00902344 2.53320312 0.01367188 C4.58466649 0.02539452 6.63609273 0.04332797 8.6875 0.0625 C8.6875 0.3925 8.6875 0.7225 8.6875 1.0625 C0.7675 1.5575 0.7675 1.5575 -7.3125 2.0625 C-7.3125 2.7225 -7.3125 3.3825 -7.3125 4.0625 C-9.6225 4.0625 -11.9325 4.0625 -14.3125 4.0625 C-14.3125 3.0725 -14.3125 2.0825 -14.3125 1.0625 C-9.54157044 -0.17152862 -4.88780554 -0.05015112 0 0 Z " fill="#60C199" transform="translate(165.3125,91.9375)"/>
<path d="M0 0 C0.66 0.33 1.32 0.66 2 1 C1.67 13.21 1.34 25.42 1 38 C0.67 38 0.34 38 0 38 C-0.16723026 32.74912156 -0.32782815 27.49809906 -0.48217773 22.24682617 C-0.53567402 20.45900968 -0.59100904 18.67124725 -0.64819336 16.88354492 C-0.72989235 14.31961734 -0.80505945 11.75557047 -0.87890625 9.19140625 C-0.90594131 8.3872377 -0.93297638 7.58306915 -0.96083069 6.75453186 C-1.01285627 4.83701578 -1.01187441 2.91818497 -1 1 C-0.67 0.67 -0.34 0.34 0 0 Z " fill="#209D70" transform="translate(172,208)"/>
<path d="M0 0 C7.92 0.66 15.84 1.32 24 2 C24 2.33 24 2.66 24 3 C13.11 3 2.22 3 -9 3 C-9 2.67 -9 2.34 -9 2 C-6.03 2 -3.06 2 0 2 C0 1.34 0 0.68 0 0 Z " fill="#6ACBB4" transform="translate(275,89)"/>
<path d="M0 0 C-2.61312431 3.30810418 -5.34546872 3.81612539 -9.375 4.6875 C-10.49648438 4.93886719 -11.61796875 5.19023437 -12.7734375 5.44921875 C-15.60488987 5.93255384 -18.13887454 6.11251617 -21 6 C-20.01 5.67 -19.02 5.34 -18 5 C-17.67 4.34 -17.34 3.68 -17 3 C-14.78515625 2.40234375 -14.78515625 2.40234375 -12.0625 1.9375 C-0.81126015 -0.02134895 -0.81126015 -0.02134895 0 0 Z " fill="#1F7E7A" transform="translate(355,401)"/>
<path d="M0 0 C2.875 0.25 2.875 0.25 6 1 C7.375 3.0625 7.375 3.0625 8 5 C5.09399739 6.25664978 3.20395416 7 0 7 C0 4.69 0 2.38 0 0 Z " fill="#1DA17A" transform="translate(187,227)"/>
<path d="M0 0 C0.66 0 1.32 0 2 0 C1.34 8.58 0.68 17.16 0 26 C-0.33 26 -0.66 26 -1 26 C-1.02886751 21.85418113 -1.04675327 17.70838784 -1.0625 13.5625 C-1.07087891 12.37849609 -1.07925781 11.19449219 -1.08789062 9.97460938 C-1.09111328 8.84990234 -1.09433594 7.72519531 -1.09765625 6.56640625 C-1.10289307 5.52427979 -1.10812988 4.48215332 -1.11352539 3.40844727 C-1 1 -1 1 0 0 Z " fill="#5DB995" transform="translate(99,150)"/>
<path d="M0 0 C0 0.66 0 1.32 0 2 C-2.31 3.32 -4.62 4.64 -7 6 C-6.67 6.66 -6.34 7.32 -6 8 C-10.455 8.495 -10.455 8.495 -15 9 C-15 8.34 -15 7.68 -15 7 C-12.87767021 5.82823482 -10.75242209 4.66245215 -8.625 3.5 C-7.72007812 2.99919922 -7.72007812 2.99919922 -6.796875 2.48828125 C-2.2265625 0 -2.2265625 0 0 0 Z " fill="#48AA8D" transform="translate(208,206)"/>
<path d="M0 0 C0.66 0.33 1.32 0.66 2 1 C1.8125 2.8125 1.8125 2.8125 1 5 C-2.37287736 7.62334906 -4.75651873 8.36372697 -9 8 C-8.67 7.01 -8.34 6.02 -8 5 C-5.9375 4.3125 -5.9375 4.3125 -4 4 C-4 3.34 -4 2.68 -4 2 C-2.125 0.9375 -2.125 0.9375 0 0 Z " fill="#38847D" transform="translate(365,394)"/>
<path d="M0 0 C-3.12147545 1.67333158 -6.24773498 3.33751716 -9.375 5 C-10.26445312 5.47695312 -11.15390625 5.95390625 -12.0703125 6.4453125 C-12.92109375 6.89648438 -13.771875 7.34765625 -14.6484375 7.8125 C-15.43395996 8.23144531 -16.21948242 8.65039062 -17.02880859 9.08203125 C-19 10 -19 10 -21 10 C-21 9.01 -21 8.02 -21 7 C-20.05640625 6.63648438 -20.05640625 6.63648438 -19.09375 6.265625 C-14.79834748 4.58369028 -10.63352986 2.86326456 -6.5625 0.6875 C-3 -1 -3 -1 0 0 Z " fill="#3DA580" transform="translate(199,198)"/>
<path d="M0 0 C-5.30036248 2.65018124 -8.67966313 2.98234116 -14.625 2.5625 C-15.42679687 2.51029297 -16.22859375 2.45808594 -17.0546875 2.40429688 C-19.03679103 2.27451629 -21.01844499 2.13790265 -23 2 C-23 1.67 -23 1.34 -23 1 C-15.31516461 0.32546899 -7.71589817 -0.1567564 0 0 Z " fill="#2C7D77" transform="translate(331,407)"/>
<path d="M0 0 C0.66 0 1.32 0 2 0 C2.12036664 5.77759884 1.8320582 11.27959989 1 17 C0.34 17 -0.32 17 -1 17 C-1.18451025 5.47835991 -1.18451025 5.47835991 0 0 Z " fill="#4D8C89" transform="translate(402,325)"/>
<path d="M0 0 C0.99 0 1.98 0 3 0 C2.67 3.63 2.34 7.26 2 11 C2.99 11.33 3.98 11.66 5 12 C3.35 12.66 1.7 13.32 0 14 C0 9.38 0 4.76 0 0 Z " fill="#3B8B77" transform="translate(185,257)"/>
<path d="M0 0 C7.12384541 -0.66268329 13.30879185 1.74611936 20 4 C20 4.33 20 4.66 20 5 C12.34866258 5.40989308 6.7102929 3.63474199 0 0 Z " fill="#639D94" transform="translate(334,91)"/>
<path d="M0 0 C-0.33 0.66 -0.66 1.32 -1 2 C-1.99 2.33 -2.98 2.66 -4 3 C-4.33 3.66 -4.66 4.32 -5 5 C-7.28515625 5.4140625 -7.28515625 5.4140625 -10.0625 5.625 C-10.98160156 5.69976562 -11.90070313 5.77453125 -12.84765625 5.8515625 C-13.91306641 5.92503906 -13.91306641 5.92503906 -15 6 C-13.62034266 3.24068532 -11.91419385 2.70578866 -9.1875 1.3125 C-7.87845703 0.62607422 -7.87845703 0.62607422 -6.54296875 -0.07421875 C-3.7921588 -1.07566569 -2.68514734 -1.03274898 0 0 Z " fill="#439B8E" transform="translate(291,271)"/>
<path d="M0 0 C3.02419525 0.58803797 6.01758453 1.22678118 9 2 C9 2.66 9 3.32 9 4 C10.65 4 12.3 4 14 4 C14 4.66 14 5.32 14 6 C14.66 6 15.32 6 16 6 C16.33 6.99 16.66 7.98 17 9 C10.83643195 7.3341708 5.51740344 4.12194714 0 1 C0 0.67 0 0.34 0 0 Z " fill="#3E9884" transform="translate(232,267)"/>
<path d="M0 0 C-2.7881022 1.5066972 -5.58103958 3.00419804 -8.375 4.5 C-9.1690625 4.92925781 -9.963125 5.35851562 -10.78125 5.80078125 C-11.92207031 6.40986328 -11.92207031 6.40986328 -13.0859375 7.03125 C-13.7876709 7.40830078 -14.4894043 7.78535156 -15.21240234 8.17382812 C-17 9 -17 9 -19 9 C-19 8.01 -19 7.02 -19 6 C-17.35 6 -15.7 6 -14 6 C-14 5.34 -14 4.68 -14 4 C-12.23494565 3.13395466 -10.46271926 2.28251358 -8.6875 1.4375 C-7.70136719 0.96183594 -6.71523437 0.48617187 -5.69921875 -0.00390625 C-3 -1 -3 -1 0 0 Z " fill="#D8FAF4" transform="translate(249,185)"/>
<path d="M0 0 C10.55808656 0.77904328 10.55808656 0.77904328 15 3 C14.67 3.66 14.34 4.32 14 5 C8.125 4.125 8.125 4.125 7 3 C4.67182036 2.63239269 2.3381615 2.29758419 0 2 C0 1.34 0 0.68 0 0 Z " fill="#64C6B4" transform="translate(328,91)"/>
<path d="M0 0 C1.125 1.625 1.125 1.625 2 4 C1.38290413 6.01584651 0.71706982 8.01751285 0 10 C0.33 10.99 0.66 11.98 1 13 C0.0625 16.1875 0.0625 16.1875 -1 19 C-1.33 19 -1.66 19 -2 19 C-2.19818283 12.29481414 -2.30844801 6.34823202 0 0 Z " fill="#2BB47E" transform="translate(101,153)"/>
<path d="M0 0 C-1.90881434 1.03544174 -3.82739204 2.05290085 -5.75 3.0625 C-6.81734375 3.63097656 -7.8846875 4.19945312 -8.984375 4.78515625 C-12.02593537 6.01044806 -13.04893565 6.25348607 -16 5 C-15.195625 4.71125 -14.39125 4.4225 -13.5625 4.125 C-10.8673532 3.26737432 -10.8673532 3.26737432 -10 1 C-6.18004171 -0.61287128 -3.94567184 -1.20681069 0 0 Z " fill="#32937E" transform="translate(272,266)"/>
<path d="M0 0 C0.99 0.33 1.98 0.66 3 1 C1.41727399 4.16545202 -1.39683131 4.71120622 -4.5625 6.125 C-5.76003906 6.66382813 -6.95757812 7.20265625 -8.19140625 7.7578125 C-9.11824219 8.16773438 -10.04507812 8.57765625 -11 9 C-11 8.01 -11 7.02 -11 6 C-9.68 6 -8.36 6 -7 6 C-6.67 5.01 -6.34 4.02 -6 3 C-4.02 2.67 -2.04 2.34 0 2 C0 1.34 0 0.68 0 0 Z " fill="#3C9F8B" transform="translate(290,253)"/>
<path d="M0 0 C-1 3 -1 3 -3.50390625 4.38671875 C-4.51324219 4.81597656 -5.52257812 5.24523437 -6.5625 5.6875 C-7.57441406 6.12449219 -8.58632813 6.56148438 -9.62890625 7.01171875 C-10.41136719 7.33785156 -11.19382812 7.66398437 -12 8 C-12.66 7.34 -13.32 6.68 -14 6 C-12.04414675 4.99515796 -10.08523763 3.99626195 -8.125 3 C-6.48917969 2.1646875 -6.48917969 2.1646875 -4.8203125 1.3125 C-2 0 -2 0 0 0 Z " fill="#3C8E81" transform="translate(272,312)"/>
<path d="M0 0 C-0.375 1.9375 -0.375 1.9375 -1 4 C-4.21451269 5.60725635 -7.43612536 5.05748185 -11 5 C-11 4.01 -11 3.02 -11 2 C-9.6078125 2.061875 -9.6078125 2.061875 -8.1875 2.125 C-4.72190539 1.98909433 -3.24974144 0 0 0 Z " fill="#D2EEEB" transform="translate(258,273)"/>
<path d="M0 0 C-2.12232979 1.17176518 -4.24757791 2.33754785 -6.375 3.5 C-6.97828125 3.83386719 -7.5815625 4.16773438 -8.203125 4.51171875 C-12.7734375 7 -12.7734375 7 -15 7 C-15 6.34 -15 5.68 -15 5 C-13.35 4.67 -11.7 4.34 -10 4 C-10 3.34 -10 2.68 -10 2 C-3.375 -1.125 -3.375 -1.125 0 0 Z " fill="#D8F7F4" transform="translate(277,276)"/>
<path d="M0 0 C0.33 0 0.66 0 1 0 C1 8.58 1 17.16 1 26 C0.01 25.67 -0.98 25.34 -2 25 C-1.67 24.34 -1.34 23.68 -1 23 C-0.84733388 21.26131256 -0.75067404 19.51752499 -0.68359375 17.7734375 C-0.64169922 16.7421875 -0.59980469 15.7109375 -0.55664062 14.6484375 C-0.51732422 13.56820313 -0.47800781 12.48796875 -0.4375 11.375 C-0.39431641 10.28703125 -0.35113281 9.1990625 -0.30664062 8.078125 C-0.2003547 5.3855483 -0.09831943 2.69287747 0 0 Z " fill="#279085" transform="translate(327,259)"/>
<path d="M0 0 C0.66 0.99 1.32 1.98 2 3 C0.68 5.31 -0.64 7.62 -2 10 C-2.99 9.67 -3.98 9.34 -5 9 C-4.49396008 6.83125748 -4.00016187 5.00032373 -3 3 C-2.34 3 -1.68 3 -1 3 C-0.67 2.01 -0.34 1.02 0 0 Z " fill="#398684" transform="translate(393,365)"/>
<path d="M0 0 C2.59055206 0.92994176 4.35062083 2.09728811 6.4375 3.875 C2.49235492 5.84757254 -3.39519562 4.09046378 -7.5625 2.875 C-3.31135845 -0.16152968 -3.31135845 -0.16152968 0 0 Z " fill="#44A594" transform="translate(288.5625,237.125)"/>
<path d="M0 0 C6.75 -0.125 6.75 -0.125 9 1 C9 1.66 9 2.32 9 3 C9.66 3 10.32 3 11 3 C11.33 3.99 11.66 4.98 12 6 C7.76570244 4.68938409 3.92592596 3.05643741 0 1 C0 0.67 0 0.34 0 0 Z " fill="#48AA8F" transform="translate(222,229)"/>
<path d="M0 0 C0.33 0.99 0.66 1.98 1 3 C-1.73704754 5.73704754 -4.26044774 6.16182449 -8 7 C-9.32 6.67 -10.64 6.34 -12 6 C-8.04 4.02 -4.08 2.04 0 0 Z " fill="#42AF8F" transform="translate(236,191)"/>
<path d="M0 0 C0.99 0.33 1.98 0.66 3 1 C3 1.66 3 2.32 3 3 C3.99 3.33 4.98 3.66 6 4 C7.84499398 5.87617698 9.3683599 7.92737609 11 10 C6.39137539 8.50897439 3.46669756 6.30545582 0 3 C0 2.01 0 1.02 0 0 Z " fill="#237A5E" transform="translate(122,385)"/>
<path d="M0 0 C4.29 0 8.58 0 13 0 C8 4 8 4 5.375 3.9375 C3 3 3 3 0 0 Z " fill="#409082" transform="translate(244,306)"/>
<path d="M0 0 C4.455 1.98 4.455 1.98 9 4 C9 4.66 9 5.32 9 6 C5.535 7.485 5.535 7.485 2 9 C2.33 8.01 2.66 7.02 3 6 C3.66 6 4.32 6 5 6 C5 5.34 5 4.68 5 4 C4.01 4 3.02 4 2 4 C2 3.34 2 2.68 2 2 C1.34 2 0.68 2 0 2 C0 1.34 0 0.68 0 0 Z " fill="#4A9E90" transform="translate(298,242)"/>
<path d="M0 0 C2 0 2 0 4 1.6875 C6.06936354 4.08020159 6.98413829 6.03055807 8 9 C8.33 9.66 8.66 10.32 9 11 C6.10895008 9.70401211 3.96981607 8.50703864 2 6 C0.8125 2.8125 0.8125 2.8125 0 0 Z " fill="#468672" transform="translate(116,380)"/>
<path d="M0 0 C0.33 1.32 0.66 2.64 1 4 C1.66 4.33 2.32 4.66 3 5 C2.67 7.31 2.34 9.62 2 12 C1.01 11.67 0.02 11.34 -1 11 C-0.67 7.37 -0.34 3.74 0 0 Z " fill="#357A75" transform="translate(400,338)"/>
<path d="M0 0 C2.97 0 5.94 0 9 0 C9 1.32 9 2.64 9 4 C6.03 3.67 3.06 3.34 0 3 C0 2.01 0 1.02 0 0 Z " fill="#1D8671" transform="translate(245,322)"/>
<path d="M0 0 C2.97 0.495 2.97 0.495 6 1 C6.33 1.99 6.66 2.98 7 4 C5.1875 4.6875 5.1875 4.6875 3 5 C1.25 3.6875 1.25 3.6875 0 2 C0 1.34 0 0.68 0 0 Z M0 4 C0.33 4.99 0.66 5.98 1 7 C-0.32 7.33 -1.64 7.66 -3 8 C-3 7.34 -3 6.68 -3 6 C-2.01 6 -1.02 6 0 6 C0 5.34 0 4.68 0 4 Z " fill="#2DAF96" transform="translate(297,211)"/>
<path d="M0 0 C4.75 0.875 4.75 0.875 7 2 C7.33 2.99 7.66 3.98 8 5 C8.99 5.66 9.98 6.32 11 7 C9.35 7.33 7.7 7.66 6 8 C5.566875 7.195625 5.13375 6.39125 4.6875 5.5625 C3.19525998 2.72153646 3.19525998 2.72153646 0 2 C0 1.34 0 0.68 0 0 Z " fill="#21856C" transform="translate(211,304)"/>
<path d="M0 0 C0.66 0.33 1.32 0.66 2 1 C0.74922363 3.50155273 -0.35027305 3.92212548 -2.8125 5.1875 C-3.49957031 5.55230469 -4.18664062 5.91710937 -4.89453125 6.29296875 C-7.35996549 7.12087895 -8.58292094 6.85276722 -11 6 C-9.21385682 4.96953278 -7.42089982 3.95086764 -5.625 2.9375 C-4.62726563 2.36902344 -3.62953125 1.80054688 -2.6015625 1.21484375 C-1.74304688 0.81394531 -0.88453125 0.41304688 0 0 Z " fill="#CFEFEC" transform="translate(278,295)"/>
<path d="M0 0 C3.98132389 1.68440626 6.89197977 4.03325341 10 7 C10 8.32 10 9.64 10 11 C5.95947978 9.65315993 5.22840799 7.55152523 3 4 C2.01133494 2.65824027 1.0161846 1.32103998 0 0 Z " fill="#79C4B7" transform="translate(381,117)"/>
<path d="M0 0 C0 0.66 0 1.32 0 2 C-0.99 2 -1.98 2 -3 2 C-3 2.99 -3 3.98 -3 5 C-7.455 5.495 -7.455 5.495 -12 6 C-8.59780735 3.25207517 -4.51535412 0 0 0 Z " fill="#429F8B" transform="translate(264,250)"/>
<path d="M0 0 C-1.78881736 1.00508801 -3.58114696 2.00392736 -5.375 3 C-6.37273437 3.556875 -7.37046875 4.11375 -8.3984375 4.6875 C-11 6 -11 6 -13 6 C-13 5.34 -13 4.68 -13 4 C-10.35261084 2.5393715 -9.10551666 2 -6 2 C-6 1.34 -6 0.68 -6 0 C-3.50907189 -1.24546405 -2.58919267 -0.7767578 0 0 Z " fill="#D4F5F1" transform="translate(273,245)"/>
<path d="M0 0 C1.98 0 3.96 0 6 0 C6.33 0.66 6.66 1.32 7 2 C8.97888961 2.72693904 10.97954558 3.39816251 13 4 C13 4.33 13 4.66 13 5 C8.428721 4.45144652 4.32564205 3.58255197 0 2 C0 1.34 0 0.68 0 0 Z " fill="#3C826E" transform="translate(145,402)"/>
<path d="M0 0 C-1.20381448 2.49361571 -2.45428722 4.68143083 -4 7 C-6.625 7.6875 -6.625 7.6875 -9 8 C-7.70948419 4.12845257 -4.40863591 0 0 0 Z " fill="#177C7A" transform="translate(376,386)"/>
<path d="M0 0 C1.22156872 3.66470616 0.62833432 4.63237688 -0.8125 8.125 C-1.16957031 9.01445312 -1.52664063 9.90390625 -1.89453125 10.8203125 C-3 13 -3 13 -5 14 C-5 12.68 -5 11.36 -5 10 C-4.34 10 -3.68 10 -3 10 C-3.061875 9.278125 -3.12375 8.55625 -3.1875 7.8125 C-2.96476068 4.47141026 -1.8717754 2.72967245 0 0 Z " fill="#1B807B" transform="translate(397,352)"/>
<path d="M0 0 C-1.60032137 0.84069415 -3.20541171 1.67231505 -4.8125 2.5 C-6.15248047 3.19609375 -6.15248047 3.19609375 -7.51953125 3.90625 C-10 5 -10 5 -13 5 C-12 2 -12 2 -10.0390625 1.015625 C-9.24242187 0.76296875 -8.44578125 0.5103125 -7.625 0.25 C-6.83351563 -0.01296875 -6.04203125 -0.2759375 -5.2265625 -0.546875 C-3 -1 -3 -1 0 0 Z " fill="#389284" transform="translate(302,284)"/>
<path d="M0 0 C-0.66 1.32 -1.32 2.64 -2 4 C-3.65 4 -5.3 4 -7 4 C-7.33 3.01 -7.66 2.02 -8 1 C-3.375 -1.125 -3.375 -1.125 0 0 Z " fill="#179986" transform="translate(301,280)"/>
<path d="M0 0 C1.65 0 3.3 0 5 0 C5 0.66 5 1.32 5 2 C6.65 2 8.3 2 10 2 C10.66 3.32 11.32 4.64 12 6 C7.76570244 4.68938409 3.92592596 3.05643741 0 1 C0 0.67 0 0.34 0 0 Z " fill="#419B83" transform="translate(216,259)"/>
<path d="M0 0 C2.97 0.495 2.97 0.495 6 1 C6 2.32 6 3.64 6 5 C1.25 4.125 1.25 4.125 -1 3 C-0.67 2.01 -0.34 1.02 0 0 Z " fill="#1D9874" transform="translate(197,245)"/>
<path d="M0 0 C-3.41016497 2.86453858 -6.90694544 4.34703566 -11 6 C-11 5.01 -11 4.02 -11 3 C-7.33513904 0.08966924 -4.60625394 -0.32136655 0 0 Z " fill="#35A187" transform="translate(264,236)"/>
<path d="M0 0 C3 1 3 1 5 4 C4 5 4 5 1.4375 5.0625 C0.2309375 5.0315625 0.2309375 5.0315625 -1 5 C-1 1 -1 1 0 0 Z " fill="#22A57F" transform="translate(222,224)"/>
<path d="M0 0 C0 2.31 0 4.62 0 7 C-0.66 6.01 -1.32 5.02 -2 4 C-4.56282742 3.27034634 -4.56282742 3.27034634 -7 3 C-4.49955934 -0.00052879 -4.2621484 0 0 0 Z " fill="#359B8C" transform="translate(314,258)"/>
<path d="M0 0 C0.99 0.33 1.98 0.66 3 1 C2.625 2.9375 2.625 2.9375 2 5 C-0.70879335 6.35439668 -3.00933268 6.06501451 -6 6 C-5.38125 5.54625 -4.7625 5.0925 -4.125 4.625 C-1.94080167 3.02891081 -1.94080167 3.02891081 0 1 C0 0.67 0 0.34 0 0 Z " fill="#D7F3ED" transform="translate(198,229)"/>
<path d="M0 0 C1 2 1 2 0.44140625 4.1640625 C0.15136719 4.97617188 -0.13867188 5.78828125 -0.4375 6.625 C-0.72496094 7.44226563 -1.01242188 8.25953125 -1.30859375 9.1015625 C-1.53675781 9.72804687 -1.76492187 10.35453125 -2 11 C-2.66 10.67 -3.32 10.34 -4 10 C-4 8.35 -4 6.7 -4 5 C-3.01 4.67 -2.02 4.34 -1 4 C-0.26676204 1.98491642 -0.26676204 1.98491642 0 0 Z " fill="#65BB96" transform="translate(104,138)"/>
<path d="M0 0 C4.455 2.97 4.455 2.97 9 6 C7 7 7 7 4.5625 6.25 C2.14147089 5.06901019 0.74181991 4.0168441 -1 2 C-0.67 1.34 -0.34 0.68 0 0 Z " fill="#5CA095" transform="translate(367,102)"/>
<path d="M0 0 C0.99 0.66 1.98 1.32 3 2 C0.36 3.65 -2.28 5.3 -5 7 C-5.66 6.34 -6.32 5.68 -7 5 C-3.375 2 -3.375 2 0 2 C0 1.34 0 0.68 0 0 Z " fill="#3C736F" transform="translate(372,391)"/>
<path d="M0 0 C-0.33 1.32 -0.66 2.64 -1 4 C-5.455 4.495 -5.455 4.495 -10 5 C-3.63636364 0 -3.63636364 0 0 0 Z " fill="#D4F7EE" transform="translate(209,193)"/>
<path d="M0 0 C3 1 3 1 4 3 C4.04022391 5.3329866 4.04320247 7.66706666 4 10 C3.34 9.67 2.68 9.34 2 9 C1.3671875 6.93359375 1.3671875 6.93359375 0.875 4.4375 C0.70742188 3.61121094 0.53984375 2.78492188 0.3671875 1.93359375 C0.24601562 1.29550781 0.12484375 0.65742188 0 0 Z " fill="#76B8AE" transform="translate(396,139)"/>
<path d="M0 0 C-0.5 1.9375 -0.5 1.9375 -2 4 C-4.69658452 4.68790422 -7.2017019 4.81946464 -10 5 C-3.63636364 0 -3.63636364 0 0 0 Z " fill="#44958E" transform="translate(311,292)"/>
<path d="M0 0 C1.65 0 3.3 0 5 0 C5 0.66 5 1.32 5 2 C6.32 2.66 7.64 3.32 9 4 C3.48 4.368 3.48 4.368 1.125 2.5625 C0 1 0 1 0 0 Z " fill="#42B596" transform="translate(257,173)"/>
<path d="M0 0 C2.83374881 3.20336822 3.5205537 5.78087253 4 10 C3.34 10 2.68 10 2 10 C-0.4294516 6.3558226 -0.16179575 4.28758728 0 0 Z " fill="#4BBAAD" transform="translate(395,140)"/>
<path d="M0 0 C3.08089673 2.77280706 4.68775452 5.06326356 6 9 C3.525 8.01 3.525 8.01 1 7 C0.67 4.69 0.34 2.38 0 0 Z " fill="#4ABCAE" transform="translate(384,121)"/>
<path d="M0 0 C1.65 0.33 3.3 0.66 5 1 C5 1.66 5 2.32 5 3 C0.38 3 -4.24 3 -9 3 C-9 2.67 -9 2.34 -9 2 C-6.03 2 -3.06 2 0 2 C0 1.34 0 0.68 0 0 Z " fill="#62D0B8" transform="translate(275,89)"/>
<path d="M0 0 C0.66 0 1.32 0 2 0 C1.65120368 3.25543229 0.97866739 4.01873107 -1.5625 6.25 C-2.366875 6.8275 -3.17125 7.405 -4 8 C-3.40312566 4.65750371 -2.26396123 2.53563658 0 0 Z " fill="#40807F" transform="translate(382,381)"/>
<path d="M0 0 C3.9492568 0.55105909 7.34920174 1.38935371 11 3 C9.4375 4.25 9.4375 4.25 7 5 C4.42998985 3.93237266 2.3469597 2.53455057 0 1 C0 0.67 0 0.34 0 0 Z " fill="#398E7C" transform="translate(228,298)"/>
<path d="M0 0 C3.0831351 1.19899698 6.06279492 2.47700477 9 4 C9 4.66 9 5.32 9 6 C8.01 6.33 7.02 6.66 6 7 C5.34 6.01 4.68 5.02 4 4 C1.94996045 2.80767387 1.94996045 2.80767387 0 2 C0 1.34 0 0.68 0 0 Z " fill="#418E7A" transform="translate(190,259)"/>
<path d="M0 0 C0 0.99 0 1.98 0 3 C-0.99 3 -1.98 3 -3 3 C-3 3.66 -3 4.32 -3 5 C-4.65 4.67 -6.3 4.34 -8 4 C-2.7826087 0 -2.7826087 0 0 0 Z " fill="#D3F3EF" transform="translate(307,248)"/>
<path d="M0 0 C2.0245738 1.93254772 3.42105792 3.63158688 5 6 C4.67 6.99 4.34 7.98 4 9 C0.06153846 5.67692308 0.06153846 5.67692308 -0.25 2.25 C-0.1675 1.5075 -0.085 0.765 0 0 Z " fill="#6BA49A" transform="translate(390,125)"/>
<path d="M0 0 C0.99 0.33 1.98 0.66 3 1 C3 1.66 3 2.32 3 3 C-1.455 3.495 -1.455 3.495 -6 4 C-4.03617993 2.49440461 -2.21736634 1.10868317 0 0 Z " fill="#37928A" transform="translate(317,288)"/>
<path d="M0 0 C0.33 0.99 0.66 1.98 1 3 C1.99 3.33 2.98 3.66 4 4 C-0.75 7 -0.75 7 -3 7 C-1.125 1.125 -1.125 1.125 0 0 Z " fill="#3BA98F" transform="translate(273,226)"/>
<path d="M0 0 C-3.1254959 2.64465038 -6.08788267 3.84414715 -10 5 C-10 4.34 -10 3.68 -10 3 C-9.01 3 -8.02 3 -7 3 C-7 2.34 -7 1.68 -7 1 C-4.53721199 -0.231394 -2.7204945 -0.07159196 0 0 Z " fill="#40AA86" transform="translate(209,192)"/>
<path d="M0 0 C1.98 0 3.96 0 6 0 C6 0.66 6 1.32 6 2 C6.99 2 7.98 2 9 2 C9.33 2.99 9.66 3.98 10 5 C6.08788267 3.84414715 3.1254959 2.64465038 0 0 Z " fill="#CBF0E9" transform="translate(260,189)"/>
<path d="M0 0 C0.33 0.66 0.66 1.32 1 2 C1.66 2 2.32 2 3 2 C4.38232443 3.62626404 5.71937515 5.2925002 7 7 C4.03 6.505 4.03 6.505 1 6 C0.67 4.02 0.34 2.04 0 0 Z " fill="#3AB798" transform="translate(275,179)"/>
<path d="M0 0 C6.46153846 0.46153846 6.46153846 0.46153846 9 3 C5.37 2.67 1.74 2.34 -2 2 C-1.34 1.34 -0.68 0.68 0 0 Z " fill="#D1F9F2" transform="translate(247,172)"/>
<path d="M0 0 C0.66 0.99 1.32 1.98 2 3 C-0.31 4.32 -2.62 5.64 -5 7 C-4.60196439 4.11424181 -4.20990931 3.17810487 -1.9375 1.25 C-1.298125 0.8375 -0.65875 0.425 0 0 Z " fill="#65BDA0" transform="translate(132,102)"/>
<path d="M0 0 C0.33 0.99 0.66 1.98 1 3 C-2.3 3.33 -5.6 3.66 -9 4 C-6.43425105 1.43425105 -3.68548192 0 0 0 Z " fill="#5AA182" transform="translate(151,94)"/>
<path d="M0 0 C0 0.66 0 1.32 0 2 C-4.15267176 5.11450382 -4.15267176 5.11450382 -7.3125 4.6875 C-7.869375 4.460625 -8.42625 4.23375 -9 4 C-2.25 0 -2.25 0 0 0 Z " fill="#4CA190" transform="translate(281,241)"/>
<path d="M0 0 C0.66 0.33 1.32 0.66 2 1 C2 1.66 2 2.32 2 3 C-0.97 3.66 -3.94 4.32 -7 5 C-4.51068299 2.51068299 -3.16125753 1.22371259 0 0 Z " fill="#CFF1ED" transform="translate(283,226)"/>
<path d="M0 0 C1.65 0 3.3 0 5 0 C5.66 1.32 6.32 2.64 7 4 C4.69 3.34 2.38 2.68 0 2 C0 1.34 0 0.68 0 0 Z " fill="#77C0B2" transform="translate(360,100)"/>
<path d="M0 0 C0.99 0.33 1.98 0.66 3 1 C3 3.31 3 5.62 3 8 C0.37613513 4.93882432 0 4.26826873 0 0 Z " fill="#428671" transform="translate(100,351)"/>
<path d="M0 0 C-0.66 1.32 -1.32 2.64 -2 4 C-3.98 4 -5.96 4 -8 4 C-2.7826087 0 -2.7826087 0 0 0 Z " fill="#389584" transform="translate(274,278)"/>
<path d="M0 0 C-0.66 1.32 -1.32 2.64 -2 4 C-3.98 4 -5.96 4 -8 4 C-6.27302455 0.54604909 -3.70696841 0 0 0 Z " fill="#3D967E" transform="translate(208,273)"/>
<path d="M0 0 C1.98 0.66 3.96 1.32 6 2 C6 2.33 6 2.66 6 3 C3.03 3 0.06 3 -3 3 C-2.01 2.01 -1.02 1.02 0 0 Z " fill="#499783" transform="translate(211,270)"/>
<path d="M0 0 C0.66 0.33 1.32 0.66 2 1 C1.01 2.98 0.02 4.96 -1 7 C-1.66 7 -2.32 7 -3 7 C-3.1875 4.625 -3.1875 4.625 -3 2 C-2.01 1.34 -1.02 0.68 0 0 Z " fill="#22AC80" transform="translate(206,208)"/>
<path d="M0 0 C-6.75 4 -6.75 4 -9 4 C-9 3.34 -9 2.68 -9 2 C-8.34 2 -7.68 2 -7 2 C-7 1.34 -7 0.68 -7 0 C-3.98968256 -0.93423645 -3.13349732 -1.04449911 0 0 Z " fill="#DEFBF5" transform="translate(202,209)"/>
<path d="M0 0 C0.66 0.33 1.32 0.66 2 1 C1.01 2.485 1.01 2.485 0 4 C-3.625 4.6875 -3.625 4.6875 -7 5 C-4.702779 3.25728062 -2.40133271 1.60088848 0 0 Z " fill="#D1F4EA" transform="translate(185,204)"/>
</svg>
